<?xml version="1.0" standalone="no"?><!DOCTYPE svg PUBLIC "-//W3C//DTD SVG 1.1//EN" "http://www.w3.org/Graphics/SVG/1.1/DTD/svg11.dtd"><svg t="1640839171942" class="icon" viewBox="0 0 1024 1024" version="1.1" xmlns="http://www.w3.org/2000/svg" p-id="1196" xmlns:xlink="http://www.w3.org/1999/xlink" width="200" height="200"><defs><style type="text/css"></style></defs><path d="M417.792 318.464c-37.888 15.36-80.896-3.072-96.256-40.96l-66.56-166.912c-15.36-37.888 3.072-80.896 40.96-96.256s80.896 3.072 96.256 40.96l66.56 166.912c15.36 37.888-3.072 80.896-40.96 96.256zM631.808 318.464c37.888 15.36 80.896-3.072 96.256-40.96l66.56-166.912c15.36-37.888-3.072-80.896-40.96-96.256s-80.896 3.072-96.256 40.96l-66.56 166.912c-15.36 37.888 3.072 80.896 40.96 96.256z" fill="#DB9C2E" p-id="1197"></path><path d="M847.872 1008.64H198.656c-72.704 0-131.072-58.368-131.072-131.072V328.704c0-72.704 58.368-131.072 131.072-131.072h649.216c72.704 0 131.072 58.368 131.072 131.072v547.84c0 72.704-58.368 132.096-131.072 132.096z" fill="#F9C34B" p-id="1198"></path><path d="M410.624 463.872c0-7.168 2.048-13.312 5.12-18.432 3.072-4.096 7.168-7.168 13.312-9.216 5.12-1.024 11.264-1.024 18.432 0s13.312 5.12 19.456 10.24c26.624 20.48 53.248 40.96 78.848 59.392 25.6 19.456 49.152 37.888 71.68 55.296 6.144 5.12 10.24 10.24 14.336 17.408 3.072 6.144 5.12 13.312 5.12 20.48s-1.024 13.312-4.096 19.456c-3.072 6.144-7.168 11.264-12.288 16.384-13.312 10.24-25.6 20.48-38.912 30.72l-39.936 32.768c-13.312 10.24-26.624 21.504-39.936 31.744-13.312 10.24-25.6 20.48-37.888 29.696-6.144 4.096-11.264 7.168-17.408 8.192-6.144 1.024-11.264 1.024-16.384 0s-9.216-4.096-12.288-9.216c-3.072-4.096-5.12-10.24-5.12-16.384v-36.864-241.664h-2.048z" fill="#FFFFFF" p-id="1199"></path></svg>