<svg width="261" height="77" xmlns="http://www.w3.org/2000/svg" class="font">
 <!---->
 <defs>
  <!---->
  <linearGradient y2="0%" x2="100%" y1="0%" x1="0%" id="9d0ff6ad-348c-4c55-9678-c056002655a6" gradientTransform="rotate(25)">
   <stop stop-color="#085B20" offset="0%"/>
   <stop stop-color="#41E296" offset="100%"/>
  </linearGradient>
 </defs>

 <!---->
 <!---->
 <g>
  <title>background</title>
  <rect fill="none" id="canvas_background" height="79" width="263" y="-1" x="-1"/>
 </g>
 <g>
  <title>Layer 1</title>
  <rect id="svg_1" class="logo-background-square" height="77.000012" width="300" y="102" x="0" fill="transparent"/>
  <g transform="matrix(3.54096, 0, 0, 3.54096, 36.3174, 107.827)" fill="url(#9d0ff6ad-348c-4c55-9678-c056002655a6)" id="33f5b418-0ec2-4a29-addc-de1fa6547526">
   <path id="svg_2" d="m1.879272,-16.814632l0,0l0,0q0.35,0.599998 0.35,1.159999l0,0l0,0q0,0.129999 -0.02,0.23l0,0l0,0q-0.02,0.110001 -0.049999,0.219999l0,0l0,0q-0.24,-0.030001 -0.49,-0.039999l0,0l0,0q-0.26,-0.02 -0.54,-0.02l0,0l0,0q-0.34,0 -0.68,0.02l0,0l0,0q-0.35,0.02 -0.77,0.07l0,0l0,0q-0.42,0.039999 -0.93,0.109999l0,0l0,0q-0.52,0.070002 -1.21,0.18l0,0l0,0q-0.32,-0.109999 -0.64,-0.440001l0,0l0,0q-0.32,-0.329998 -0.6,-0.789998l0,0l0,0q0.14,-0.309999 0.35,-0.769999l0,0l0,0q0.21,-0.450001 0.49,-1.100002l0,0l0,0q0.28,-0.649998 0.62,-1.529999l0,0l0,0q0.34,-0.869999 0.73,-2.02l0,0l0,0q0.26,-0.76 0.44,-1.33l0,0l0,0q0.18,-0.57 0.33,-1.110001l0,0l0,0q0.14,-0.539999 0.28,-1.129999l0,0l0,0q0.14,-0.59 0.31,-1.360001l0,0l0,0q0.56,0.110001 0.98,0.41l0,0l0,0q0.41,0.310001 0.79,0.870001l0,0l0,0q-0.12,0.18 -0.3,0.58l0,0l0,0q-0.18,0.41 -0.43,0.99l0,0l0,0q-0.24,0.58 -0.53,1.32l0,0l0,0q-0.3,0.730001 -0.62,1.570002l0,0l0,0q-0.31,0.829998 -0.6,1.559998l0,0l0,0q-0.3,0.720001 -0.53,1.310001l0,0l0,0q-0.23,0.59 -0.37,1.01l0,0l0,0q-0.14,0.42 -0.14,0.629999l0,0l0,0q0.23,-0.009998 0.41,-0.029999l0,0l0,0q0.18,-0.010002 0.38,-0.050001l0,0l0,0q0.19,-0.030001 0.42,-0.08l0,0l0,0q0.23,-0.049999 0.56,-0.130001l0,0l0,0q0.28,-0.07 0.51,-0.119999l0,0l0,0q0.24,-0.049999 0.47,-0.09l0,0l0,0q0.23,-0.029999 0.48,-0.049999l0,0l0,0q0.24,-0.02 0.55,-0.049999zm1.18,-0.140001l0,0l0,0q0,-0.129999 0.02,-0.32l0,0l0,0q0.02,-0.190001 0.08,-0.5l0,0l0,0q0.049999,-0.32 0.139999,-0.76l0,0l0,0q0.09,-0.450001 0.230001,-1.08l0,0l0,0q0.029999,-0.140001 0.129999,-0.449999l0,0l0,0q0.1,-0.310001 0.26,-0.650002l0,0l0,0q0.16,-0.34 0.389999,-0.669998l0,0l0,0q0.23,-0.320002 0.55,-0.470001l0,0l0,0q0.24,0.049999 0.629999,0.290001l0,0l0,0q0.400002,0.23 0.68,0.629999l0,0l0,0q-0.33,0.370001 -0.539999,0.73l0,0l0,0q-0.220001,0.360001 -0.4,0.76l0,0l0,0q-0.17,0.389999 -0.320002,0.810001l0,0l0,0q-0.139999,0.419998 -0.33,0.879997l0,0l0,0q-0.15,0.390001 -0.28,0.810001l0,0l0,0q-0.119999,0.41 -0.139999,0.720001l0,0l0,0q0,0.249999 0,0.349998l0,0l0,0q-0.01,0.110001 -0.08,0.110001l0,0l0,0q-0.059999,0 -0.219999,-0.07l0,0l0,0q-0.17,-0.07 -0.35,-0.22l0,0l0,0q-0.17,-0.15 -0.31,-0.369999l0,0l0,0q-0.14,-0.220001 -0.14,-0.530001zm2.670001,-6.08l0,0l0,0q0,-0.08 0.039999,-0.25l0,0l0,0q-0.07,-0.07 -0.119999,-0.209999l0,0l0,0q-0.040001,-0.140001 -0.040001,-0.25l0,0l0,0q0,-0.130001 0.030001,-0.34l0,0l0,0q0.039999,-0.220001 0.09,-0.470001l0,0l0,0q0.059999,-0.259998 0.139999,-0.529999l0,0l0,0q0.09,-0.27 0.17,-0.5l0,0l0,0q0.17,0 0.41,0.099998l0,0l0,0q0.25,0.09 0.5,0.230001l0,0l0,0q0.25,0.15 0.459999,0.33l0,0l0,0q0.210001,0.17 0.320002,0.32l0,0l0,0q-0.150002,0.16 -0.400002,0.43l0,0l0,0q-0.25,0.27 -0.49,0.57l0,0l0,0q-0.24,0.309999 -0.439999,0.57l0,0l0,0q-0.190001,0.27 -0.25,0.380001l0,0l0,0q-0.17,-0.030001 -0.290001,-0.150002l0,0l0,0q-0.129999,-0.119999 -0.129999,-0.23zm8.709999,2.720001l0,0l0,0q-0.220001,0.009998 -0.549999,0.279999l0,0l0,0q-0.32,0.279999 -0.689999,0.709999l0,0l0,0q-0.370003,0.420002 -0.77,0.940002l0,0l0,0q-0.400002,0.519999 -0.77,1.029999l0,0l0,0q-0.369999,0.51 -0.689999,0.959999l0,0l0,0q-0.32,0.45 -0.550003,0.71l0,0l0,0q-0.309999,-0.120001 -0.529999,-0.37l0,0l0,0q-0.220001,-0.24 -0.32,-0.610001l0,0l0,0q0.07,-0.429998 0.189999,-0.899998l0,0l0,0q0.130001,-0.470001 0.33,-0.970001l0,0l0,0q0.210001,-0.51 0.51,-1.059999l0,0l0,0q0.300003,-0.550001 0.73,-1.17l0,0l0,0q-0.209999,0.009998 -0.57,0.299999l0,0l0,0q-0.369999,0.290001 -0.789999,0.740002l0,0l0,0q-0.42,0.459999 -0.860001,1.029999l0,0l0,0q-0.450001,0.560001 -0.84,1.110001l0,0l0,0q-0.52,0.73 -0.869998,1.27l0,0l0,0q-0.34,0.549998 -0.490002,0.649997l0,0l0,0q-0.369999,-0.269999 -0.509998,-0.579997l0,0l0,0q-0.140001,-0.310001 -0.210001,-0.68l0,0l0,0q0.02,-0.34 0.110001,-0.84l0,0l0,0q0.09,-0.51 0.26,-1.040001l0,0l0,0q0.32,-1.02 0.83,-2.029999l0,0l0,0q0.51,-1.01 0.989999,-1.85l0,0l0,0q0.389999,0.09 0.699999,0.269999l0,0l0,0q0.320002,0.18 0.67,0.530003l0,0l0,0q-0.139999,0.429998 -0.429998,0.919998l0,0l0,0q-0.300001,0.48 -0.620001,1.01l0,0l0,0q-0.32,0.530001 -0.59,1.09l0,0l0,0q-0.26,0.559999 -0.35,1.140001l0,0l0,0q0.390001,-0.560001 0.93,-1.290001l0,0l0,0q0.540001,-0.73 1.110001,-1.369999l0,0l0,0q0.57,-0.650002 1.130001,-1.09l0,0l0,0q0.559998,-0.450001 1,-0.450001l0,0l0,0q0.169998,0 0.369999,0.049999l0,0l0,0q0.189999,0.060001 0.360001,0.139999l0,0l0,0q0.169998,0.09 0.279999,0.170002l0,0l0,0q0.110001,0.07 0.130001,0.109999l0,0l0,0q-0.07,0.280001 -0.330002,0.77l0,0l0,0q-0.259998,0.48 -0.549999,1.01l0,0l0,0q-0.299999,0.529999 -0.549999,1.029999l0,0l0,0q-0.25,0.5 -0.290001,0.790001l0,0l0,0q0.68,-0.940001 1.280003,-1.700001l0,0l0,0q0.609997,-0.759998 1.139999,-1.309999l0,0l0,0q0.529999,-0.539999 0.989998,-0.84l0,0l0,0q0.450001,-0.289999 0.860001,-0.289999l0,0l0,0q0.279999,0 0.52,0.139999l0,0l0,0q0.25,0.15 0.34,0.43l0,0l0,0q-0.119999,0.419998 -0.41,1.009998l0,0l0,0q-0.290001,0.59 -0.580002,1.240002l0,0l0,0q-0.289997,0.65 -0.529999,1.279999l0,0l0,0q-0.23,0.630001 -0.23,1.130001l0,0l0,0q0,0.299999 0.09,0.389999l0,0l0,0q0.079998,0.09 0.239998,0.09l0,0l0,0q0.16,0 0.310001,-0.059999l0,0l0,0q0.150002,-0.070002 0.220001,-0.070002l0,0l0,0q0.079998,0.060001 0.099998,0.140001l0,0l0,0q0.010002,0.09 0.010002,0.16l0,0l0,0q-0.280003,0.219998 -0.57,0.37l0,0l0,0q-0.300003,0.15 -0.660004,0.15l0,0l0,0q-0.339996,0 -0.549999,-0.120001l0,0l0,0q-0.219997,-0.110001 -0.360001,-0.299998l0,0l0,0q-0.139999,-0.200001 -0.199997,-0.450001l0,0l0,0q-0.050003,-0.25 -0.050003,-0.549999l0,0l0,0q0,-0.470001 0.120003,-0.940001l0,0l0,0q0.129997,-0.469999 0.299999,-0.9l0,0l0,0q0.18,-0.43 0.369999,-0.799999l0,0l0,0q0.200001,-0.370001 0.34,-0.66zm7.630001,-1.5l0,0l0,0q-0.060001,0.869999 -0.310001,1.489998l0,0l0,0q-0.25,0.620001 -0.719997,1.09l0,0l0,0q-0.470001,0.470001 -1.140003,0.850002l0,0l0,0q-0.669998,0.379997 -1.57,0.73l0,0l0,0q0,0.079998 0,0.169998l0,0l0,0q-0.009998,0.09 -0.009998,0.190001l0,0l0,0q0,0.18 0.029999,0.379999l0,0l0,0q0.02,0.200001 0.09,0.360001l0,0l0,0q0.07,0.170002 0.200001,0.280001l0,0l0,0q0.130001,0.1 0.32,0.1l0,0l0,0q0.380001,0 0.740002,-0.17l0,0l0,0q0.369999,-0.160002 0.699997,-0.410002l0,0l0,0q0.330002,-0.239998 0.610001,-0.529999l0,0l0,0q0.290001,-0.290001 0.510002,-0.529999l0,0l0,0q0.139999,0.129999 0.239998,0.239998l0,0l0,0q-0.629997,0.84 -1.379997,1.400002l0,0l0,0q-0.75,0.549998 -1.420002,0.7l0,0l0,0q-0.959999,-0.110001 -1.5,-0.7l0,0l0,0q-0.540001,-0.6 -0.540001,-1.440001l0,0l0,0q0,-0.57 0.16,-1.17l0,0l0,0q0.16,-0.59 0.450001,-1.15l0,0l0,0q0.279999,-0.550001 0.670002,-1.039999l0,0l0,0q0.379997,-0.490002 0.829998,-0.850002l0,0l0,0q0.439999,-0.369999 0.91,-0.579998l0,0l0,0q0.459999,-0.210001 0.93,-0.210001l0,0l0,0q0.639999,0.09 1.200001,0.800001zm-0.970001,0.459999l0,0l0,0q-0.369999,0.059999 -0.779999,0.309999l0,0l0,0q-0.41,0.25 -0.760002,0.67l0,0l0,0q-0.359997,0.42 -0.649998,0.98l0,0l0,0q-0.299999,0.560001 -0.470001,1.210001l0,0l0,0q1.119999,-0.559999 1.869999,-1.379999l0,0l0,0q0.740002,-0.82 0.790001,-1.790001zm3.43,-1.76l0,0l0,0q-0.079998,-0.07 -0.149998,-0.23l0,0l0,0q-0.070004,-0.15 -0.070004,-0.300001l0,0l0,0q0.170002,-0.49 0.320004,-1.129999l0,0l0,0q0.139999,-0.639999 0.139999,-1.42l0,0l0,0q0,-0.35 -0.030003,-0.719999l0,0l0,0q-0.039997,-0.360001 -0.139999,-0.77l0,0l0,0q0.68,0.049999 1.23,0.289999l0,0l0,0q0.550003,0.25 0.73,0.6l0,0l0,0q-0.23,1.27 -0.719997,2.210001l0,0l0,0q-0.490002,0.939999 -1.310001,1.469999zm5.240002,1.52l0,0l0,0q-0.009998,0.269999 -0.09,0.559999l0,0l0,0q-0.079998,0.279999 -0.189999,0.52l0,0l0,0q-0.110001,0.23 -0.239998,0.380001l0,0l0,0q-0.120003,0.149998 -0.240002,0.149998l0,0l0,0q-0.150002,-0.009998 -0.18,-0.209999l0,0l0,0q0,-0.040001 0.040001,-0.130001l0,0l0,0q0.029999,-0.09 0.07,-0.199999l0,0l0,0q0.049999,-0.109999 0.079998,-0.230001l0,0l0,0q0.040001,-0.109999 0.040001,-0.189999l0,0l0,0q0,-0.200001 -0.099998,-0.33l0,0l0,0q-0.09,-0.129999 -0.240002,-0.129999l0,0l0,0q-0.560001,0 -0.850002,0.699999l0,0l0,0q-0.299999,0.699999 -0.299999,2.050001l0,0l0,0q0,0.139999 0.02,0.169998l0,0l0,0q0.289997,-0.009998 0.519997,-0.02l0,0l0,0q0.230003,-0.009998 0.460007,-0.009998l0,0l0,0q0.009998,0.029999 0.009998,0.119999l0,0l0,0q0,0.120001 -0.060001,0.18l0,0l0,0q-0.320004,0.07 -0.510002,0.120001l0,0l0,0q-0.189999,0.049999 -0.279999,0.089998l0,0l0,0q-0.100002,0.040001 -0.120003,0.09l0,0l0,0q-0.019997,0.050001 -0.019997,0.130001l0,0l0,0q0,0.110001 0,0.23l0,0l0,0q0.009998,0.110001 0.009998,0.280001l0,0l0,0q0,1.17 -0.639999,1.89l0,0l0,0q-0.630001,0.709999 -1.77,0.819998l0,0l0,0q-0.189999,-0.009998 -0.399998,-0.109999l0,0l0,0q-0.210003,-0.1 -0.400002,-0.25l0,0l0,0q-0.189999,-0.16 -0.330002,-0.34l0,0l0,0q-0.139999,-0.190001 -0.199997,-0.389999l0,0l0,0q0,-0.53 0.23,-1.010001l0,0l0,0q0.219997,-0.489998 0.599998,-0.859999l0,0l0,0q0.389999,-0.370001 0.91,-0.6l0,0l0,0q0.530003,-0.23 1.150002,-0.27l0,0l0,0q0,-0.349998 -0.07,-0.689999l0,0l0,0q-0.07,-0.34 -0.150002,-0.650002l0,0l0,0q-0.079998,-0.32 -0.149998,-0.619999l0,0l0,0q-0.070004,-0.299999 -0.070004,-0.59l0,0l0,0q0,-0.380001 0.16,-0.75l0,0l0,0q0.150002,-0.369999 0.400002,-0.689999l0,0l0,0q0.25,-0.310001 0.59,-0.540001l0,0l0,0q0.34,-0.220001 0.700001,-0.300001l0,0l0,0q0.149998,0.040001 0.410004,0.24l0,0l0,0q0.259998,0.200001 0.509998,0.460001l0,0l0,0q0.260002,0.25 0.450001,0.51l0,0l0,0q0.200001,0.259998 0.239998,0.42zm-4.620003,6.389998l0,0l0,0q0.34,-0.139999 0.640003,-0.41l0,0l0,0q0.299999,-0.26 0.519997,-0.599999l0,0l0,0q0.230003,-0.34 0.360001,-0.709999l0,0l0,0q0.130001,-0.380001 0.130001,-0.75l0,0l0,0q-0.279999,0.049999 -0.610001,0.259998l0,0l0,0q-0.34,0.220001 -0.630001,0.52l0,0l0,0q-0.299999,0.300001 -0.489998,0.620001l0,0l0,0q-0.200001,0.329999 -0.200001,0.559999l0,0l0,0q0,0.310001 0.279999,0.51zm17.670004,-8.53l0,0l0,0q0,0.870001 -0.48,1.550001l0,0l0,0q-0.470001,0.679998 -1.300003,1.129999l0,0l0,0q0.530003,0.360001 0.850002,0.889999l0,0l0,0q0.309998,0.52 0.309998,1.150002l0,0l0,0q0,0.759998 -0.449997,1.49l0,0l0,0q-0.460003,0.74 -1.210003,1.300001l0,0l0,0q-0.759998,0.569999 -1.73,0.919997l0,0l0,0q-0.959999,0.35 -1.969997,0.35l0,0l0,0q-1.09,0 -1.910004,-0.41l0,0l0,0q-0.82,-0.42 -1.279999,-1.169999l0,0l0,0q0.139999,-0.42 0.369999,-1.040001l0,0l0,0q0.230003,-0.629999 0.510002,-1.32l0,0l0,0q0.279999,-0.689999 0.57,-1.379999l0,0l0,0q0.279999,-0.690001 0.540001,-1.230001l0,0l0,0q0.529999,-1.189999 0.950001,-1.98l0,0l0,0q0.419998,-0.779999 0.769997,-1.24l0,0l0,0q-0.769997,0.24 -1.399998,0.540001l0,0l0,0q-0.630001,0.299999 -0.93,0.58l0,0l0,0q-0.119999,-0.09 -0.25,-0.25l0,0l0,0q-0.139999,-0.17 -0.260002,-0.380001l0,0l0,0q-0.119999,-0.199999 -0.189999,-0.41l0,0l0,0q-0.079998,-0.209999 -0.09,-0.379999l0,0l0,0q0.360001,-0.25 0.939999,-0.48l0,0l0,0q0.580002,-0.230001 1.27,-0.4l0,0l0,0q0.68,-0.170002 1.400002,-0.26l0,0l0,0q0.73,-0.1 1.380001,-0.1l0,0l0,0q1.68,0 2.639999,0.67l0,0l0,0q0.950001,0.67 0.950001,1.859999zm-5.34,3.350002l0,0l0,0q-0.260002,-0.130001 -0.490002,-0.380001l0,0l0,0q-0.32,0.709999 -0.599998,1.4l0,0l0,0q-0.290001,0.690001 -0.52,1.27l0,0l0,0q-0.220001,0.589998 -0.360001,1.030001l0,0l0,0q-0.139999,0.43 -0.150002,0.629999l0,0l0,0q0.190002,0.109999 0.460003,0.16l0,0l0,0q0.279999,0.059999 0.68,0.059999l0,0l0,0q0.959999,0 1.82,-0.27l0,0l0,0q0.869999,-0.259998 1.529999,-0.719999l0,0l0,0q0.66,-0.449999 1.049999,-1.039999l0,0l0,0q0.389999,-0.59 0.389999,-1.23l0,0l0,0q0,-0.93 -0.799999,-1.330002l0,0l0,0q-1.09,0.450001 -2.459999,0.450001l0,0l0,0q-0.200001,0 -0.299999,0l0,0l0,0q-0.110001,0 -0.25,-0.029999zm2.719997,-4.860001l0,0l0,0q-0.289997,0 -0.619999,0.029999l0,0l0,0q-0.329998,0.040001 -0.700001,0.110001l0,0l0,0q0.060001,0.059999 0.09,0.119999l0,0l0,0q0.040001,0.060001 0.07,0.130001l0,0l0,0q-0.129997,0.17 -0.309998,0.49l0,0l0,0q-0.18,0.32 -0.41,0.75l0,0l0,0q-0.220001,0.43 -0.470001,0.949999l0,0l0,0q-0.240002,0.510002 -0.490002,1.060001l0,0l0,0q0.240002,-0.060001 0.580002,-0.09l0,0l0,0q0.34,-0.040001 0.68,-0.040001l0,0l0,0q0.18,0 0.349998,0.02l0,0l0,0q0.18,0.01 0.350002,0.040001l0,0l0,0q0.669998,-0.110001 1.209999,-0.330002l0,0l0,0q0.540001,-0.219997 0.93,-0.5l0,0l0,0q0.389999,-0.289999 0.599998,-0.639999l0,0l0,0q0.209999,-0.349998 0.209999,-0.74l0,0l0,0q0,-0.67 -0.529999,-1.019999l0,0l0,0q-0.529999,-0.34 -1.540001,-0.34zm2.830002,8.329998l0,0l0,0q0,-0.619999 0.290001,-1.73l0,0l0,0q0.299999,-1.110001 0.829998,-2.599998l0,0l0,0q0.869999,-2.360001 1.630001,-3.940001l0,0l0,0q0.759998,-1.57 1.489998,-2.450001l0,0l0,0q0.170002,0.02 0.41,0.140001l0,0l0,0q0.25,0.109999 0.490002,0.24l0,0l0,0q0.23,0.129999 0.420002,0.269999l0,0l0,0q0.189999,0.140001 0.25,0.230001l0,0l0,0q-1.09,1.289999 -1.920002,2.769999l0,0l0,0q-0.829998,1.48 -1.509998,3.400002l0,0l0,0q-0.59,1.65 -0.900002,2.98l0,0l0,0q-0.310001,1.32 -0.310001,2.2l0,0l0,0q0,0.24 0,0.299999l0,0l0,0q0,0.049999 0.02,0.110001l0,0l0,0q-0.200001,-0.030001 -0.34,-0.1l0,0l0,0q-0.139999,-0.07 -0.18,-0.17l0,0l0,0q-0.029999,-0.07 -0.149998,-0.200001l0,0l0,0q-0.130001,-0.129999 -0.23,-0.200001l0,0l0,0q-0.120003,-0.09 -0.210003,-0.439998l0,0l0,0q-0.079998,-0.360001 -0.079998,-0.810001zm4.91,1.39l0,0l0,0q-0.799999,-0.09 -1.27,-0.699998l0,0l0,0q-0.48,-0.620001 -0.48,-1.570002l0,0l0,0q0,-0.559999 0.169998,-1.16l0,0l0,0q0.170002,-0.609999 0.480003,-1.17l0,0l0,0q0.299999,-0.57 0.719997,-1.07l0,0l0,0q0.420002,-0.51 0.91,-0.869999l0,0l0,0q0.77,-0.580002 1.450001,-0.580002l0,0l0,0q0.439999,0.240002 0.880001,1l0,0l0,0q0.07,0 0.119999,-0.009998l0,0l0,0q0.060001,-0.010002 0.130001,-0.010002l0,0l0,0q0.739998,0 0.739998,1.320002l0,0l0,0q0,0.879999 -0.279999,1.67l0,0l0,0q-0.290001,0.790001 -0.799999,1.439999l0,0l0,0q-0.510002,0.640001 -1.220001,1.080002l0,0l0,0q-0.709999,0.439998 -1.549999,0.629998zm0.720001,-4.409999l0,0l0,0q-0.240002,0.32 -0.450001,0.699999l0,0l0,0q-0.209999,0.370001 -0.369999,0.760002l0,0l0,0q-0.150002,0.379999 -0.230003,0.739998l0,0l0,0q-0.09,0.360001 -0.09,0.640001l0,0l0,0q0,0.33 0.110001,0.639999l0,0l0,0q0.120003,0.309999 0.260002,0.35l0,0l0,0q0.629997,-0.139999 1.149998,-0.52l0,0l0,0q0.530003,-0.389999 0.91,-0.959999l0,0l0,0q0.390003,-0.580002 0.600002,-1.299999l0,0l0,0q0.219997,-0.730001 0.219997,-1.560001l0,0l0,0q0,-0.360001 -0.039997,-0.57l0,0l0,0q-0.040001,-0.209999 -0.139999,-0.369999l0,0l0,0q-0.620003,0.189999 -1.100002,0.589998l0,0l0,0q-0.48,0.410002 -0.829998,0.860001zm0.98,8.089999l0,0l0,0q0,-0.09 0.049999,-0.16l0,0l0,0q0.060001,-0.07 0.130001,-0.140001l0,0l0,0q0.169998,0.16 0.289997,0.240002l0,0l0,0q0.110001,0.089998 0.220001,0.139999l0,0l0,0q0.099998,0.059999 0.220001,0.07l0,0l0,0q0.110001,0.02 0.259998,0.02l0,0l0,0q0.73,0 1.389999,-0.390001l0,0l0,0q0.66,-0.379999 1.240002,-1.109999l0,0l0,0q0.579998,-0.73 1.049999,-1.780001l0,0l0,0q0.48,-1.05 0.84,-2.379998l0,0l0,0q-0.16,0.169998 -0.41,0.369999l0,0l0,0q-0.240002,0.200001 -0.509998,0.389999l0,0l0,0q-0.27,0.18 -0.52,0.330002l0,0l0,0q-0.260002,0.16 -0.450001,0.23l0,0l0,0q-0.23,-0.049999 -0.439999,-0.209999l0,0l0,0q-0.200001,-0.16 -0.350002,-0.400002l0,0l0,0q-0.16,-0.23 -0.239998,-0.529999l0,0l0,0q-0.09,-0.310001 -0.09,-0.640001l0,0l0,0q0,-0.549999 0.209999,-1.120001l0,0l0,0q0.200001,-0.579998 0.540001,-1.129999l0,0l0,0q0.329998,-0.549999 0.789997,-1.039999l0,0l0,0q0.450001,-0.490002 0.960003,-0.860001l0,0l0,0q0.509998,-0.360001 1.039997,-0.58l0,0l0,0q0.52,-0.210001 1.030003,-0.210001l0,0l0,0q0.489998,0 0.73,0.200001l0,0l0,0q0.25,0.200001 0.360001,0.690001l0,0l0,0q-0.150002,-0.08 -0.389999,-0.08l0,0l0,0q-0.34,0 -0.780003,0.259998l0,0l0,0q-0.439999,0.27 -0.889999,0.700001l0,0l0,0q-0.459999,0.42 -0.91,0.98l0,0l0,0q-0.450001,0.550001 -0.790001,1.120001l0,0l0,0q-0.34,0.58 -0.559998,1.120001l0,0l0,0q-0.220001,0.549999 -0.220001,0.98l0,0l0,0q0,0.099998 0.02,0.119999l0,0l0,0q0.009998,0.02 0.040001,0.02l0,0l0,0q0.129997,0 0.34,-0.139999l0,0l0,0q0.219997,-0.139999 0.489998,-0.35l0,0l0,0q0.279999,-0.219999 0.57,-0.51l0,0l0,0q0.290001,-0.279999 0.560001,-0.58l0,0l0,0q0.599998,-0.67 1.099998,-1.5l0,0l0,0q0.5,-0.84 0.790001,-1.620001l0,0l0,0q0.380001,0.030001 0.669998,0.130001l0,0l0,0q0.299999,0.09 0.41,0.209999l0,0l0,0q-0.48,1.09 -0.759998,1.830002l0,0l0,0q-0.290001,0.739998 -0.5,1.32l0,0l0,0q-0.380001,1 -0.709999,1.839999l0,0l0,0q-0.330002,0.83 -0.670002,1.539999l0,0l0,0q-0.34,0.700001 -0.739998,1.309999l0,0l0,0q-0.400002,0.610001 -0.91,1.17l0,0l0,0q-0.23,0.27 -0.530003,0.470001l0,0l0,0q-0.309998,0.199999 -0.619999,0.34l0,0l0,0q-0.32,0.139999 -0.619999,0.209999l0,0l0,0q-0.299999,0.07 -0.549999,0.07l0,0l0,0q-0.34,0 -0.690002,-0.07l0,0l0,0q-0.349998,-0.08 -0.649998,-0.209999l0,0l0,0q-0.300003,-0.140001 -0.52,-0.310001l0,0l0,0q-0.23,-0.179998 -0.32,-0.369999z"/>
  </g>
 </g>
</svg>