<svg width="300" height="300" xmlns="http://www.w3.org/2000/svg" class="font">
 <!---->
 <defs>
  <!---->
  <linearGradient y2="0%" x2="100%" y1="0%" x1="0%" id="9d0ff6ad-348c-4c55-9678-c056002655a6" gradientTransform="rotate(25)">
   <stop stop-color="#085B20" offset="0%"/>
   <stop stop-color="#41E296" offset="100%"/>
  </linearGradient>
 </defs>

 <!---->
 <!---->
 <g>
  <title>background</title>
  <rect fill="none" id="canvas_background" height="593" width="1278" y="-1" x="-1"/>
 </g>
 <g>
  <title>Layer 1</title>
  <rect id="svg_1" class="logo-background-square" height="72.000001" width="300" y="111.000002" x="0" fill="transparent"/>
  <g transform="matrix(3.5409626545234896,0,0,3.5409626545234896,36.31739897437258,107.82713616916453)" fill="url(#9d0ff6ad-348c-4c55-9678-c056002655a6)" id="33f5b418-0ec2-4a29-addc-de1fa6547526">
   <path id="svg_2" d="m6.62,14.38l0,0l0,0q0.35,0.599999 0.35,1.16l0,0l0,0q0,0.13 -0.02,0.23l0,0l0,0q-0.02,0.11 -0.05,0.219999l0,0l0,0q-0.24,-0.03 -0.49,-0.04l0,0l0,0q-0.26,-0.02 -0.54,-0.02l0,0l0,0q-0.34,0 -0.68,0.02l0,0l0,0q-0.35,0.02 -0.77,0.070001l0,0l0,0q-0.42,0.039999 -0.93,0.109999l0,0l0,0q-0.52,0.070002 -1.21,0.18l0,0l0,0q-0.32,-0.109999 -0.64,-0.44l0,0l0,0q-0.32,-0.33 -0.6,-0.79l0,0l0,0q0.14,-0.309999 0.35,-0.77l0,0l0,0q0.21,-0.450001 0.49,-1.1l0,0l0,0q0.28,-0.65 0.62,-1.53l0,0l0,0q0.34,-0.87 0.73,-2.02l0,0l0,0q0.26,-0.76 0.44,-1.33l0,0l0,0q0.18,-0.57 0.33,-1.11l0,0l0,0q0.14,-0.54 0.28,-1.13l0,0l0,0q0.14,-0.59 0.31,-1.36l0,0l0,0q0.56,0.11 0.98,0.41l0,0l0,0q0.41,0.31 0.79,0.87l0,0l0,0q-0.12,0.18 -0.3,0.58l0,0l0,0q-0.18,0.41 -0.43,0.99l0,0l0,0q-0.24,0.58 -0.53,1.32l0,0l0,0q-0.3,0.73 -0.62,1.570001l0,0l0,0q-0.31,0.83 -0.6,1.559999l0,0l0,0q-0.3,0.72 -0.53,1.31l0,0l0,0q-0.23,0.59 -0.37,1.01l0,0l0,0q-0.14,0.42 -0.14,0.629999l0,0l0,0q0.23,-0.009999 0.41,-0.03l0,0l0,0q0.18,-0.01 0.38,-0.05l0,0l0,0q0.19,-0.03 0.42,-0.08l0,0l0,0q0.23,-0.049999 0.56,-0.13l0,0l0,0q0.28,-0.07 0.51,-0.12l0,0l0,0q0.24,-0.049999 0.47,-0.09l0,0l0,0q0.23,-0.03 0.48,-0.049999l0,0l0,0q0.24,-0.02 0.55,-0.05zm1.18,-0.14l0,0l0,0q0,-0.13 0.02,-0.32l0,0l0,0q0.02,-0.190001 0.08,-0.5l0,0l0,0q0.05,-0.32 0.14,-0.76l0,0l0,0q0.09,-0.45 0.23,-1.08l0,0l0,0q0.03,-0.14 0.129999,-0.45l0,0l0,0q0.1,-0.31 0.26,-0.650001l0,0l0,0q0.16,-0.339999 0.39,-0.669999l0,0l0,0q0.23,-0.320001 0.55,-0.47l0,0l0,0q0.24,0.05 0.629999,0.29l0,0l0,0q0.400001,0.23 0.68,0.63l0,0l0,0q-0.33,0.37 -0.54,0.73l0,0l0,0q-0.22,0.360001 -0.4,0.76l0,0l0,0q-0.17,0.39 -0.320001,0.81l0,0l0,0q-0.139999,0.419999 -0.33,0.879999l0,0l0,0q-0.15,0.39 -0.28,0.81l0,0l0,0q-0.12,0.41 -0.14,0.72l0,0l0,0q0,0.25 0,0.349999l0,0l0,0q-0.009999,0.110001 -0.08,0.110001l0,0l0,0q-0.059999,0 -0.219999,-0.070001l0,0l0,0q-0.17,-0.07 -0.35,-0.219999l0,0l0,0q-0.17,-0.150001 -0.31,-0.37l0,0l0,0q-0.14,-0.22 -0.14,-0.530001zm2.67,-6.08l0,0l0,0q0,-0.08 0.04,-0.25l0,0l0,0q-0.070001,-0.07 -0.12,-0.21l0,0l0,0q-0.04,-0.14 -0.04,-0.25l0,0l0,0q0,-0.13 0.03,-0.34l0,0l0,0q0.04,-0.22 0.09,-0.47l0,0l0,0q0.059999,-0.26 0.139999,-0.53l0,0l0,0q0.09,-0.27 0.17,-0.5l0,0l0,0q0.17,0 0.41,0.1l0,0l0,0q0.25,0.09 0.5,0.23l0,0l0,0q0.25,0.15 0.46,0.33l0,0l0,0q0.21,0.17 0.320001,0.32l0,0l0,0q-0.150001,0.16 -0.400001,0.43l0,0l0,0q-0.25,0.27 -0.49,0.57l0,0l0,0q-0.24,0.31 -0.44,0.57l0,0l0,0q-0.190001,0.27 -0.25,0.38l0,0l0,0q-0.17,-0.03 -0.29,-0.15l0,0l0,0q-0.13,-0.12 -0.13,-0.23zm8.71,2.72l0,0l0,0q-0.220001,0.01 -0.550001,0.28l0,0l0,0q-0.32,0.28 -0.689999,0.71l0,0l0,0q-0.370001,0.42 -0.77,0.940001l0,0l0,0q-0.4,0.52 -0.77,1.03l0,0l0,0q-0.369999,0.51 -0.69,0.96l0,0l0,0q-0.32,0.45 -0.55,0.71l0,0l0,0q-0.309999,-0.12 -0.53,-0.37l0,0l0,0q-0.22,-0.240001 -0.32,-0.610001l0,0l0,0q0.07,-0.429999 0.19,-0.9l0,0l0,0q0.13,-0.47 0.33,-0.97l0,0l0,0q0.21,-0.51 0.51,-1.059999l0,0l0,0q0.3,-0.55 0.73,-1.17l0,0l0,0q-0.21,0.009999 -0.57,0.299999l0,0l0,0q-0.37,0.290001 -0.79,0.740001l0,0l0,0q-0.42,0.46 -0.86,1.03l0,0l0,0q-0.450001,0.56 -0.84,1.11l0,0l0,0q-0.52,0.73 -0.87,1.27l0,0l0,0q-0.34,0.55 -0.490001,0.65l0,0l0,0q-0.37,-0.27 -0.509999,-0.58l0,0l0,0q-0.14,-0.309999 -0.21,-0.679999l0,0l0,0q0.02,-0.34 0.11,-0.84l0,0l0,0q0.09,-0.51 0.26,-1.04l0,0l0,0q0.32,-1.02 0.83,-2.030001l0,0l0,0q0.51,-1.009999 0.99,-1.849999l0,0l0,0q0.39,0.09 0.7,0.27l0,0l0,0q0.320001,0.18 0.67,0.530001l0,0l0,0q-0.139999,0.429999 -0.429999,0.919999l0,0l0,0q-0.3,0.48 -0.620001,1.01l0,0l0,0q-0.32,0.530001 -0.589999,1.09l0,0l0,0q-0.26,0.56 -0.35,1.14l0,0l0,0q0.39,-0.56 0.93,-1.29l0,0l0,0q0.54,-0.73 1.11,-1.37l0,0l0,0q0.57,-0.650001 1.13,-1.09l0,0l0,0q0.559999,-0.45 1,-0.45l0,0l0,0q0.17,0 0.370001,0.049999l0,0l0,0q0.189999,0.06 0.359999,0.14l0,0l0,0q0.17,0.09 0.280001,0.17l0,0l0,0q0.110001,0.07 0.129999,0.11l0,0l0,0q-0.07,0.280001 -0.33,0.77l0,0l0,0q-0.26,0.48 -0.549999,1.01l0,0l0,0q-0.300001,0.53 -0.550001,1.03l0,0l0,0q-0.25,0.5 -0.289999,0.79l0,0l0,0q0.68,-0.940001 1.280001,-1.7l0,0l0,0q0.609999,-0.76 1.139999,-1.31l0,0l0,0q0.530001,-0.54 0.99,-0.84l0,0l0,0q0.450001,-0.29 0.860001,-0.29l0,0l0,0q0.279999,0 0.519999,0.14l0,0l0,0q0.25,0.15 0.34,0.43l0,0l0,0q-0.119999,0.419999 -0.41,1.009999l0,0l0,0q-0.289999,0.59 -0.58,1.240001l0,0l0,0q-0.289999,0.65 -0.529999,1.28l0,0l0,0q-0.230001,0.63 -0.230001,1.13l0,0l0,0q0,0.299999 0.09,0.389999l0,0l0,0q0.08,0.09 0.24,0.09l0,0l0,0q0.16,0 0.310001,-0.059999l0,0l0,0q0.15,-0.070001 0.219999,-0.070001l0,0l0,0q0.08,0.06 0.1,0.14l0,0l0,0q0.01,0.09 0.01,0.16l0,0l0,0q-0.280001,0.22 -0.57,0.37l0,0l0,0q-0.300001,0.150001 -0.660002,0.150001l0,0l0,0q-0.339998,0 -0.549999,-0.120001l0,0l0,0q-0.219999,-0.11 -0.360001,-0.299999l0,0l0,0q-0.139999,-0.200001 -0.199999,-0.450001l0,0l0,0q-0.050001,-0.25 -0.050001,-0.549999l0,0l0,0q0,-0.47 0.120001,-0.940001l0,0l0,0q0.129999,-0.469999 0.299999,-0.9l0,0l0,0q0.18,-0.43 0.370001,-0.8l0,0l0,0q0.200001,-0.37 0.34,-0.66zm7.629999,-1.5l0,0l0,0q-0.059999,0.87 -0.309999,1.49l0,0l0,0q-0.25,0.62 -0.719999,1.09l0,0l0,0q-0.470001,0.47 -1.140001,0.85l0,0l0,0q-0.67,0.379999 -1.57,0.73l0,0l0,0q0,0.08 0,0.17l0,0l0,0q-0.01,0.09 -0.01,0.19l0,0l0,0q0,0.18 0.030001,0.38l0,0l0,0q0.02,0.2 0.09,0.360001l0,0l0,0q0.07,0.17 0.199999,0.28l0,0l0,0q0.130001,0.1 0.320002,0.1l0,0l0,0q0.379999,0 0.74,-0.17l0,0l0,0q0.369999,-0.160001 0.699999,-0.410001l0,0l0,0q0.33,-0.24 0.610001,-0.53l0,0l0,0q0.290001,-0.29 0.51,-0.53l0,0l0,0q0.139999,0.13 0.24,0.24l0,0l0,0q-0.629999,0.84 -1.379999,1.400001l0,0l0,0q-0.75,0.549999 -1.42,0.7l0,0l0,0q-0.960001,-0.110001 -1.5,-0.7l0,0l0,0q-0.540001,-0.6 -0.540001,-1.440001l0,0l0,0q0,-0.57 0.16,-1.17l0,0l0,0q0.16,-0.59 0.450001,-1.15l0,0l0,0q0.279999,-0.55 0.67,-1.04l0,0l0,0q0.379999,-0.490001 0.83,-0.85l0,0l0,0q0.439999,-0.37 0.91,-0.58l0,0l0,0q0.459999,-0.21 0.93,-0.21l0,0l0,0q0.639999,0.09 1.199999,0.8zm-0.969999,0.46l0,0l0,0q-0.370001,0.059999 -0.780001,0.309999l0,0l0,0q-0.41,0.25 -0.76,0.67l0,0l0,0q-0.359999,0.42 -0.65,0.98l0,0l0,0q-0.299999,0.559999 -0.469999,1.21l0,0l0,0q1.119999,-0.56 1.869999,-1.38l0,0l0,0q0.740002,-0.82 0.790001,-1.79zm3.43,-1.76l0,0l0,0q-0.08,-0.07 -0.15,-0.23l0,0l0,0q-0.070002,-0.15 -0.070002,-0.3l0,0l0,0q0.17,-0.49 0.320002,-1.13l0,0l0,0q0.139999,-0.64 0.139999,-1.42l0,0l0,0q0,-0.35 -0.030001,-0.72l0,0l0,0q-0.039999,-0.36 -0.139999,-0.77l0,0l0,0q0.68,0.05 1.23,0.29l0,0l0,0q0.550001,0.25 0.73,0.6l0,0l0,0q-0.23,1.27 -0.719999,2.21l0,0l0,0q-0.49,0.94 -1.309999,1.47zm5.239998,1.52l0,0l0,0q-0.009998,0.27 -0.09,0.559999l0,0l0,0q-0.079998,0.28 -0.189999,0.52l0,0l0,0q-0.110001,0.23 -0.239998,0.38l0,0l0,0q-0.120003,0.15 -0.240002,0.15l0,0l0,0q-0.150002,-0.01 -0.18,-0.21l0,0l0,0q0,-0.04 0.040001,-0.13l0,0l0,0q0.029999,-0.09 0.07,-0.2l0,0l0,0q0.049999,-0.11 0.079998,-0.23l0,0l0,0q0.040001,-0.11 0.040001,-0.19l0,0l0,0q0,-0.2 -0.099998,-0.33l0,0l0,0q-0.09,-0.13 -0.240002,-0.13l0,0l0,0q-0.559998,0 -0.849998,0.7l0,0l0,0q-0.299999,0.7 -0.299999,2.05l0,0l0,0q0,0.14 0.02,0.17l0,0l0,0q0.289997,-0.01 0.519997,-0.02l0,0l0,0q0.230003,-0.009999 0.460003,-0.009999l0,0l0,0q0.009998,0.03 0.009998,0.12l0,0l0,0q0,0.12 -0.060001,0.179999l0,0l0,0q-0.32,0.070001 -0.509998,0.120001l0,0l0,0q-0.189999,0.049999 -0.279999,0.089999l0,0l0,0q-0.100002,0.04 -0.120003,0.09l0,0l0,0q-0.019997,0.05 -0.019997,0.13l0,0l0,0q0,0.110001 0,0.23l0,0l0,0q0.009998,0.11 0.009998,0.28l0,0l0,0q0,1.17 -0.639999,1.89l0,0l0,0q-0.630001,0.71 -1.77,0.819999l0,0l0,0q-0.190001,-0.009998 -0.4,-0.109999l0,0l0,0q-0.210001,-0.1 -0.400002,-0.25l0,0l0,0q-0.189999,-0.16 -0.33,-0.34l0,0l0,0q-0.139999,-0.190001 -0.199999,-0.39l0,0l0,0q0,-0.53 0.23,-1.01l0,0l0,0q0.219999,-0.49 0.6,-0.86l0,0l0,0q0.389999,-0.37 0.91,-0.6l0,0l0,0q0.530001,-0.23 1.15,-0.27l0,0l0,0q0,-0.35 -0.07,-0.690001l0,0l0,0q-0.07,-0.339999 -0.15,-0.65l0,0l0,0q-0.08,-0.32 -0.15,-0.62l0,0l0,0q-0.070002,-0.3 -0.070002,-0.59l0,0l0,0q0,-0.38 0.16,-0.75l0,0l0,0q0.150002,-0.37 0.400002,-0.69l0,0l0,0q0.25,-0.31 0.59,-0.54l0,0l0,0q0.34,-0.22 0.700001,-0.300001l0,0l0,0q0.149998,0.04 0.41,0.24l0,0l0,0q0.259998,0.2 0.509998,0.46l0,0l0,0q0.260002,0.25 0.450001,0.51l0,0l0,0q0.200001,0.259999 0.239998,0.42zm-4.619999,6.389999l0,0l0,0q0.34,-0.139999 0.640001,-0.41l0,0l0,0q0.299999,-0.26 0.519999,-0.6l0,0l0,0q0.230001,-0.339999 0.360001,-0.709999l0,0l0,0q0.130001,-0.38 0.130001,-0.75l0,0l0,0q-0.280001,0.049999 -0.610001,0.259999l0,0l0,0q-0.34,0.22 -0.630001,0.52l0,0l0,0q-0.299999,0.3 -0.49,0.62l0,0l0,0q-0.199999,0.33 -0.199999,0.559999l0,0l0,0q0,0.31 0.279999,0.51zm17.670002,-8.53l0,0l0,0q0,0.87 -0.48,1.55l0,0l0,0q-0.470001,0.679999 -1.300003,1.13l0,0l0,0q0.530003,0.36 0.850002,0.889999l0,0l0,0q0.309998,0.52 0.309998,1.150001l0,0l0,0q0,0.759999 -0.449997,1.49l0,0l0,0q-0.460003,0.74 -1.210003,1.3l0,0l0,0q-0.759998,0.57 -1.73,0.92l0,0l0,0q-0.959999,0.349999 -1.969997,0.349999l0,0l0,0q-1.09,0 -1.910004,-0.41l0,0l0,0q-0.82,-0.42 -1.279999,-1.17l0,0l0,0q0.139999,-0.42 0.369999,-1.04l0,0l0,0q0.230003,-0.63 0.510002,-1.32l0,0l0,0q0.279999,-0.690001 0.57,-1.38l0,0l0,0q0.279999,-0.690001 0.540001,-1.23l0,0l0,0q0.529999,-1.19 0.950001,-1.98l0,0l0,0q0.419998,-0.78 0.769997,-1.24l0,0l0,0q-0.769997,0.24 -1.399998,0.54l0,0l0,0q-0.630001,0.3 -0.93,0.58l0,0l0,0q-0.119999,-0.09 -0.25,-0.25l0,0l0,0q-0.139999,-0.17 -0.260002,-0.38l0,0l0,0q-0.119999,-0.2 -0.189999,-0.41l0,0l0,0q-0.079998,-0.21 -0.09,-0.38l0,0l0,0q0.360001,-0.25 0.939999,-0.48l0,0l0,0q0.580002,-0.23 1.27,-0.4l0,0l0,0q0.68,-0.17 1.400002,-0.26l0,0l0,0q0.73,-0.1 1.380001,-0.1l0,0l0,0q1.68,0 2.639999,0.67l0,0l0,0q0.950001,0.67 0.950001,1.86zm-5.34,3.35l0,0l0,0q-0.260002,-0.13 -0.490002,-0.38l0,0l0,0q-0.32,0.71 -0.599998,1.4l0,0l0,0q-0.290001,0.690001 -0.52,1.27l0,0l0,0q-0.220001,0.589999 -0.360001,1.03l0,0l0,0q-0.139999,0.43 -0.150002,0.63l0,0l0,0q0.190002,0.11 0.460003,0.16l0,0l0,0q0.279999,0.059999 0.68,0.059999l0,0l0,0q0.959999,0 1.82,-0.27l0,0l0,0q0.869999,-0.26 1.529999,-0.72l0,0l0,0q0.66,-0.45 1.049999,-1.04l0,0l0,0q0.389999,-0.59 0.389999,-1.23l0,0l0,0q0,-0.93 -0.799999,-1.33l0,0l0,0q-1.09,0.45 -2.459999,0.45l0,0l0,0q-0.200001,0 -0.299999,0l0,0l0,0q-0.110001,0 -0.25,-0.03zm2.719997,-4.860001l0,0l0,0q-0.289997,0 -0.619999,0.03l0,0l0,0q-0.329998,0.04 -0.700001,0.11l0,0l0,0q0.060001,0.06 0.09,0.12l0,0l0,0q0.040001,0.06 0.07,0.13l0,0l0,0q-0.129997,0.17 -0.309998,0.49l0,0l0,0q-0.18,0.32 -0.41,0.75l0,0l0,0q-0.220001,0.43 -0.470001,0.95l0,0l0,0q-0.240002,0.51 -0.490002,1.06l0,0l0,0q0.240002,-0.06 0.580002,-0.09l0,0l0,0q0.34,-0.04 0.68,-0.04l0,0l0,0q0.18,0 0.349998,0.02l0,0l0,0q0.18,0.01 0.350002,0.040001l0,0l0,0q0.669998,-0.110001 1.209999,-0.330001l0,0l0,0q0.540001,-0.219999 0.93,-0.5l0,0l0,0q0.389999,-0.29 0.599998,-0.639999l0,0l0,0q0.209999,-0.35 0.209999,-0.74l0,0l0,0q0,-0.67 -0.529999,-1.02l0,0l0,0q-0.529999,-0.34 -1.540001,-0.34zm2.830002,8.33l0,0l0,0q0,-0.62 0.290001,-1.73l0,0l0,0q0.299999,-1.110001 0.829998,-2.6l0,0l0,0q0.869999,-2.36 1.630001,-3.94l0,0l0,0q0.759998,-1.57 1.489998,-2.45l0,0l0,0q0.170002,0.02 0.41,0.14l0,0l0,0q0.25,0.11 0.490002,0.24l0,0l0,0q0.23,0.13 0.420002,0.27l0,0l0,0q0.189999,0.14 0.25,0.23l0,0l0,0q-1.09,1.29 -1.920002,2.77l0,0l0,0q-0.829998,1.48 -1.509998,3.4l0,0l0,0q-0.59,1.650001 -0.900002,2.98l0,0l0,0q-0.310001,1.32 -0.310001,2.2l0,0l0,0q0,0.240001 0,0.3l0,0l0,0q0,0.049999 0.02,0.110001l0,0l0,0q-0.200001,-0.030001 -0.34,-0.1l0,0l0,0q-0.139999,-0.07 -0.18,-0.17l0,0l0,0q-0.029999,-0.070001 -0.149998,-0.200001l0,0l0,0q-0.130001,-0.129999 -0.23,-0.2l0,0l0,0q-0.120003,-0.09 -0.210003,-0.44l0,0l0,0q-0.079998,-0.360001 -0.079998,-0.81zm4.91,1.39l0,0l0,0q-0.799999,-0.09 -1.27,-0.7l0,0l0,0q-0.48,-0.62 -0.48,-1.570001l0,0l0,0q0,-0.559999 0.169998,-1.16l0,0l0,0q0.170002,-0.61 0.480003,-1.17l0,0l0,0q0.299999,-0.57 0.719997,-1.07l0,0l0,0q0.420002,-0.51 0.91,-0.87l0,0l0,0q0.77,-0.58 1.450001,-0.58l0,0l0,0q0.439999,0.24 0.880001,1l0,0l0,0q0.07,0 0.119999,-0.01l0,0l0,0q0.060001,-0.01 0.130001,-0.01l0,0l0,0q0.739998,0 0.739998,1.320001l0,0l0,0q0,0.879999 -0.279999,1.67l0,0l0,0q-0.290001,0.79 -0.799999,1.44l0,0l0,0q-0.510002,0.64 -1.220001,1.08l0,0l0,0q-0.709999,0.44 -1.549999,0.63zm0.720001,-4.41l0,0l0,0q-0.240002,0.32 -0.450001,0.7l0,0l0,0q-0.209999,0.37 -0.369999,0.76l0,0l0,0q-0.150002,0.38 -0.230003,0.74l0,0l0,0q-0.09,0.36 -0.09,0.64l0,0l0,0q0,0.33 0.110001,0.639999l0,0l0,0q0.120003,0.31 0.260002,0.35l0,0l0,0q0.629997,-0.14 1.149998,-0.52l0,0l0,0q0.530003,-0.389999 0.91,-0.96l0,0l0,0q0.390003,-0.58 0.600002,-1.299999l0,0l0,0q0.219997,-0.73 0.219997,-1.56l0,0l0,0q0,-0.36 -0.039997,-0.57l0,0l0,0q-0.040001,-0.21 -0.139999,-0.37l0,0l0,0q-0.620003,0.19 -1.100002,0.589999l0,0l0,0q-0.48,0.410001 -0.829998,0.860001zm0.98,8.09l0,0l0,0q0,-0.09 0.049999,-0.16l0,0l0,0q0.060001,-0.07 0.130001,-0.140001l0,0l0,0q0.169998,0.16 0.289997,0.240002l0,0l0,0q0.110001,0.089998 0.220001,0.139999l0,0l0,0q0.099998,0.059999 0.220001,0.07l0,0l0,0q0.110001,0.02 0.259998,0.02l0,0l0,0q0.73,0 1.389999,-0.390001l0,0l0,0q0.66,-0.379999 1.240002,-1.109999l0,0l0,0q0.579998,-0.73 1.049999,-1.780001l0,0l0,0q0.48,-1.05 0.84,-2.38l0,0l0,0q-0.16,0.17 -0.41,0.37l0,0l0,0q-0.240002,0.200001 -0.509998,0.39l0,0l0,0q-0.27,0.18 -0.52,0.33l0,0l0,0q-0.260002,0.16 -0.450001,0.23l0,0l0,0q-0.23,-0.05 -0.439999,-0.21l0,0l0,0q-0.200001,-0.16 -0.350002,-0.400001l0,0l0,0q-0.16,-0.23 -0.239998,-0.53l0,0l0,0q-0.09,-0.31 -0.09,-0.64l0,0l0,0q0,-0.549999 0.209999,-1.12l0,0l0,0q0.200001,-0.58 0.540001,-1.13l0,0l0,0q0.329998,-0.549999 0.789997,-1.04l0,0l0,0q0.450001,-0.49 0.960003,-0.86l0,0l0,0q0.509998,-0.36 1.039997,-0.58l0,0l0,0q0.52,-0.21 1.030003,-0.21l0,0l0,0q0.489998,0 0.73,0.2l0,0l0,0q0.25,0.2 0.360001,0.690001l0,0l0,0q-0.150002,-0.08 -0.389999,-0.08l0,0l0,0q-0.34,0 -0.780003,0.259999l0,0l0,0q-0.439999,0.27 -0.889999,0.7l0,0l0,0q-0.459999,0.42 -0.91,0.98l0,0l0,0q-0.450001,0.55 -0.790001,1.12l0,0l0,0q-0.34,0.58 -0.559998,1.12l0,0l0,0q-0.220001,0.55 -0.220001,0.98l0,0l0,0q0,0.099999 0.02,0.12l0,0l0,0q0.009998,0.02 0.040001,0.02l0,0l0,0q0.129997,0 0.34,-0.139999l0,0l0,0q0.219997,-0.14 0.489998,-0.35l0,0l0,0q0.279999,-0.22 0.57,-0.51l0,0l0,0q0.290001,-0.28 0.560001,-0.58l0,0l0,0q0.599998,-0.67 1.099998,-1.5l0,0l0,0q0.5,-0.84 0.790001,-1.62l0,0l0,0q0.380001,0.03 0.669998,0.13l0,0l0,0q0.300003,0.09 0.41,0.21l0,0l0,0q-0.48,1.09 -0.759998,1.83l0,0l0,0q-0.290001,0.74 -0.5,1.32l0,0l0,0q-0.380001,1 -0.709999,1.84l0,0l0,0q-0.330002,0.830001 -0.670002,1.54l0,0l0,0q-0.34,0.700001 -0.739998,1.309999l0,0l0,0q-0.400002,0.610001 -0.91,1.17l0,0l0,0q-0.23,0.27 -0.530003,0.470001l0,0l0,0q-0.309998,0.199999 -0.619999,0.34l0,0l0,0q-0.32,0.139999 -0.619999,0.209999l0,0l0,0q-0.299999,0.07 -0.549999,0.07l0,0l0,0q-0.34,0 -0.690002,-0.07l0,0l0,0q-0.349998,-0.08 -0.649998,-0.209999l0,0l0,0q-0.300003,-0.140001 -0.52,-0.310001l0,0l0,0q-0.23,-0.179998 -0.32,-0.369999z"/>
  </g>
 </g>
</svg>