<?xml version="1.0" standalone="no"?><!DOCTYPE svg PUBLIC "-//W3C//DTD SVG 1.1//EN" "http://www.w3.org/Graphics/SVG/1.1/DTD/svg11.dtd"><svg t="1640839157021" class="icon" viewBox="0 0 1024 1024" version="1.1" xmlns="http://www.w3.org/2000/svg" p-id="1037" xmlns:xlink="http://www.w3.org/1999/xlink" width="200" height="200"><defs><style type="text/css"></style></defs><path d="M371.737289 1019.720144l-61.428924-118.762587c-2.047631-3.071446-6.142892-5.119077-9.214339-4.095261l-129.000741 33.785908c-5.119077 1.023815-11.261969-4.095262-10.238154-8.190523l136.167449-305.096991c1.023815-2.047631 5.119077-3.071446 8.190523-2.047631l209.882159 93.167202c3.071446 2.047631 5.119077 5.119077 4.095261 7.166708L384.023074 1021.767775c-2.047631 4.095262-10.238154 2.047631-12.285785-2.047631zM708.572558 1019.720144l61.428924-118.762587c2.047631-3.071446 6.142892-5.119077 9.214339-4.095261l129.000741 33.785908c5.119077 1.023815 11.261969-4.095262 10.238154-8.190523L782.287267 617.36069c-1.023815-3.071446-4.095262-3.071446-8.190523-2.047631l-209.882158 93.167202c-3.071446 2.047631-5.119077 5.119077-4.095262 7.166708L696.286773 1021.767775c2.047631 4.095262 10.238154 2.047631 12.285785-2.047631z" fill="#6CD4F4" p-id="1038"></path><path d="M526.333416 415.669055m-405.430901 0a405.430901 405.430901 0 1 0 810.861801 0 405.430901 405.430901 0 1 0-810.861801 0Z" fill="#7DDAFF" p-id="1039"></path><path d="M729.048866 371.644992c19.452493-19.452493 9.214339-52.214586-18.428677-56.309847l-58.357478-8.190523v7.166708c0 120.810218-118.762587 219.096497-265.168191 219.096497h-2.04763l-3.071447 20.476308c-4.095262 26.619201 23.547754 47.095509 47.095509 34.809723l80.881417-41.976431c9.214339-5.119077 20.476308-5.119077 30.714462 0l80.881417 41.976431c23.547754 12.285785 52.214586-8.190523 47.095509-34.809723l-15.357231-89.071941c-2.047631-10.238154 2.047631-21.500124 9.214339-28.666831l66.548001-64.500371z" fill="#F2F7F9" p-id="1040"></path><path d="M653.286526 315.335145v-7.166708l-31.738278-5.119077c-10.238154-2.047631-19.452493-8.190523-24.571569-18.428677l-39.928801-81.905233c-12.285785-24.57157-47.095509-24.57157-58.357478 0l-39.928801 81.905233c-5.119077 9.214339-14.333416 16.381046-24.57157 18.428677l-90.095756 13.3096c-26.619201 4.095262-37.88117 36.857355-18.428677 56.309848l65.524186 63.476555c8.190523 7.166708 11.261969 18.428677 9.214339 28.666831l-12.285785 69.619448h2.047631c144.357972 0 263.120559-98.286279 263.120559-219.096497z" fill="#FFFFFF" p-id="1041"></path></svg>