<?xml version="1.0" standalone="no"?><!DOCTYPE svg PUBLIC "-//W3C//DTD SVG 1.1//EN" "http://www.w3.org/Graphics/SVG/1.1/DTD/svg11.dtd"><svg t="1640839182100" class="icon" viewBox="0 0 1024 1024" version="1.1" xmlns="http://www.w3.org/2000/svg" p-id="1352" xmlns:xlink="http://www.w3.org/1999/xlink" width="200" height="200"><defs><style type="text/css"></style></defs><path d="M184.32 908.288c-90.112 0-163.84-73.728-163.84-163.84V475.136c0-14.336 11.264-25.6 25.6-25.6H184.32c90.112 0 163.84 73.728 163.84 163.84v131.072c0 90.112-72.704 163.84-163.84 163.84zM839.68 908.288c90.112 0 163.84-73.728 163.84-163.84V475.136c0-14.336-11.264-25.6-25.6-25.6H839.68c-90.112 0-163.84 73.728-163.84 163.84v131.072c0 90.112 72.704 163.84 163.84 163.84z" fill="#703EDD" p-id="1353"></path><path d="M659.456 777.216H364.544C175.104 777.216 20.48 622.592 20.48 433.152S174.08 89.088 364.544 89.088h294.912c189.44 0 344.064 153.6 344.064 344.064 0 189.44-154.624 344.064-344.064 344.064z" fill="#9169FF" p-id="1354"></path><path d="M457.728 433.152c0-36.864-24.576-68.608-58.368-77.824-10.24-33.792-40.96-58.368-77.824-58.368s-68.608 24.576-77.824 58.368c-33.792 10.24-58.368 40.96-58.368 77.824 0 36.864 24.576 68.608 58.368 77.824 10.24 33.792 40.96 58.368 77.824 58.368S389.12 544.768 399.36 512c33.792-10.24 58.368-41.984 58.368-78.848z" fill="#FFFFFF" p-id="1355"></path></svg>