<svg data-v-fde0c5aa="" xmlns="http://www.w3.org/2000/svg" viewBox="0 0 300 300" class="font"><!----><defs data-v-fde0c5aa=""><!----></defs><rect data-v-fde0c5aa="" fill="transparent" x="0" y="0" width="300px" height="300px" class="logo-background-square"></rect><defs data-v-fde0c5aa=""><linearGradient data-v-fde0c5aa="" gradientTransform="rotate(25)" id="9d0ff6ad-348c-4c55-9678-c056002655a6" x1="0%" y1="0%" x2="100%" y2="0%"><stop data-v-fde0c5aa="" offset="0%" stop-color="#085B20" stop-opacity="1"></stop><stop data-v-fde0c5aa="" offset="100%" stop-color="#41E296" stop-opacity="1"></stop></linearGradient></defs><g data-v-fde0c5aa="" id="33f5b418-0ec2-4a29-addc-de1fa6547526" fill="url(#9d0ff6ad-348c-4c55-9678-c056002655a6)" transform="matrix(3.5409626545234896,0,0,3.5409626545234896,36.31739897437258,107.82713616916453)"><path d="M6.62 14.38L6.62 14.38L6.62 14.38Q6.97 14.98 6.97 15.54L6.97 15.54L6.97 15.54Q6.97 15.67 6.95 15.77L6.95 15.77L6.95 15.77Q6.93 15.88 6.90 15.99L6.90 15.99L6.90 15.99Q6.66 15.96 6.41 15.95L6.41 15.95L6.41 15.95Q6.15 15.93 5.87 15.93L5.87 15.93L5.87 15.93Q5.53 15.93 5.19 15.95L5.19 15.95L5.19 15.95Q4.84 15.97 4.42 16.02L4.42 16.02L4.42 16.02Q4.00 16.06 3.49 16.13L3.49 16.13L3.49 16.13Q2.97 16.20 2.28 16.31L2.28 16.31L2.28 16.31Q1.96 16.20 1.64 15.87L1.64 15.87L1.64 15.87Q1.32 15.54 1.04 15.08L1.04 15.08L1.04 15.08Q1.18 14.77 1.39 14.31L1.39 14.31L1.39 14.31Q1.60 13.86 1.88 13.21L1.88 13.21L1.88 13.21Q2.16 12.56 2.50 11.68L2.50 11.68L2.50 11.68Q2.84 10.81 3.23 9.66L3.23 9.66L3.23 9.66Q3.49 8.90 3.67 8.33L3.67 8.33L3.67 8.33Q3.85 7.76 4.00 7.22L4.00 7.22L4.00 7.22Q4.14 6.68 4.28 6.09L4.28 6.09L4.28 6.09Q4.42 5.50 4.59 4.73L4.59 4.73L4.59 4.73Q5.15 4.84 5.57 5.14L5.57 5.14L5.57 5.14Q5.98 5.45 6.36 6.01L6.36 6.01L6.36 6.01Q6.24 6.19 6.06 6.59L6.06 6.59L6.06 6.59Q5.88 7 5.63 7.58L5.63 7.58L5.63 7.58Q5.39 8.16 5.10 8.90L5.10 8.90L5.10 8.90Q4.80 9.63 4.48 10.47L4.48 10.47L4.48 10.47Q4.17 11.30 3.88 12.03L3.88 12.03L3.88 12.03Q3.58 12.75 3.35 13.34L3.35 13.34L3.35 13.34Q3.12 13.93 2.98 14.35L2.98 14.35L2.98 14.35Q2.84 14.77 2.84 14.98L2.84 14.98L2.84 14.98Q3.07 14.97 3.25 14.95L3.25 14.95L3.25 14.95Q3.43 14.94 3.63 14.90L3.63 14.90L3.63 14.90Q3.82 14.87 4.05 14.82L4.05 14.82L4.05 14.82Q4.28 14.77 4.61 14.69L4.61 14.69L4.61 14.69Q4.89 14.62 5.12 14.57L5.12 14.57L5.12 14.57Q5.36 14.52 5.59 14.48L5.59 14.48L5.59 14.48Q5.82 14.45 6.07 14.43L6.07 14.43L6.07 14.43Q6.31 14.41 6.62 14.38ZM7.80 14.24L7.80 14.24L7.80 14.24Q7.80 14.11 7.82 13.92L7.82 13.92L7.82 13.92Q7.84 13.73 7.90 13.42L7.90 13.42L7.90 13.42Q7.95 13.10 8.04 12.66L8.04 12.66L8.04 12.66Q8.13 12.21 8.27 11.58L8.27 11.58L8.27 11.58Q8.30 11.44 8.40 11.13L8.40 11.13L8.40 11.13Q8.50 10.82 8.66 10.48L8.66 10.48L8.66 10.48Q8.82 10.14 9.05 9.81L9.05 9.81L9.05 9.81Q9.28 9.49 9.60 9.34L9.60 9.34L9.60 9.34Q9.84 9.39 10.23 9.63L10.23 9.63L10.23 9.63Q10.63 9.86 10.91 10.26L10.91 10.26L10.91 10.26Q10.58 10.63 10.37 10.99L10.37 10.99L10.37 10.99Q10.15 11.35 9.97 11.75L9.97 11.75L9.97 11.75Q9.80 12.14 9.65 12.56L9.65 12.56L9.65 12.56Q9.51 12.98 9.32 13.44L9.32 13.44L9.32 13.44Q9.17 13.83 9.04 14.25L9.04 14.25L9.04 14.25Q8.92 14.66 8.90 14.97L8.90 14.97L8.90 14.97Q8.90 15.22 8.90 15.32L8.90 15.32L8.90 15.32Q8.89 15.43 8.82 15.43L8.82 15.43L8.82 15.43Q8.76 15.43 8.60 15.36L8.60 15.36L8.60 15.36Q8.43 15.29 8.25 15.14L8.25 15.14L8.25 15.14Q8.08 14.99 7.94 14.77L7.94 14.77L7.94 14.77Q7.80 14.55 7.80 14.24ZM10.47 8.16L10.47 8.16L10.47 8.16Q10.47 8.08 10.51 7.91L10.51 7.91L10.51 7.91Q10.44 7.84 10.39 7.70L10.39 7.70L10.39 7.70Q10.35 7.56 10.35 7.45L10.35 7.45L10.35 7.45Q10.35 7.32 10.38 7.11L10.38 7.11L10.38 7.11Q10.42 6.89 10.47 6.64L10.47 6.64L10.47 6.64Q10.53 6.38 10.61 6.11L10.61 6.11L10.61 6.11Q10.70 5.84 10.78 5.61L10.78 5.61L10.78 5.61Q10.95 5.61 11.19 5.71L11.19 5.71L11.19 5.71Q11.44 5.80 11.69 5.94L11.69 5.94L11.69 5.94Q11.94 6.09 12.15 6.27L12.15 6.27L12.15 6.27Q12.36 6.44 12.47 6.59L12.47 6.59L12.47 6.59Q12.32 6.75 12.07 7.02L12.07 7.02L12.07 7.02Q11.82 7.29 11.58 7.59L11.58 7.59L11.58 7.59Q11.34 7.90 11.14 8.16L11.14 8.16L11.14 8.16Q10.95 8.43 10.89 8.54L10.89 8.54L10.89 8.54Q10.72 8.51 10.60 8.39L10.60 8.39L10.60 8.39Q10.47 8.27 10.47 8.16ZM19.18 10.88L19.18 10.88L19.18 10.88Q18.96 10.89 18.63 11.16L18.63 11.16L18.63 11.16Q18.31 11.44 17.94 11.87L17.94 11.87L17.94 11.87Q17.57 12.29 17.17 12.81L17.17 12.81L17.17 12.81Q16.77 13.33 16.40 13.84L16.40 13.84L16.40 13.84Q16.03 14.35 15.71 14.80L15.71 14.80L15.71 14.80Q15.39 15.25 15.16 15.51L15.16 15.51L15.16 15.51Q14.85 15.39 14.63 15.14L14.63 15.14L14.63 15.14Q14.41 14.90 14.31 14.53L14.31 14.53L14.31 14.53Q14.38 14.10 14.50 13.63L14.50 13.63L14.50 13.63Q14.63 13.16 14.83 12.66L14.83 12.66L14.83 12.66Q15.04 12.15 15.34 11.60L15.34 11.60L15.34 11.60Q15.64 11.05 16.07 10.43L16.07 10.43L16.07 10.43Q15.86 10.44 15.50 10.73L15.50 10.73L15.50 10.73Q15.13 11.02 14.71 11.47L14.71 11.47L14.71 11.47Q14.29 11.93 13.85 12.50L13.85 12.50L13.85 12.50Q13.40 13.06 13.01 13.61L13.01 13.61L13.01 13.61Q12.49 14.34 12.14 14.88L12.14 14.88L12.14 14.88Q11.80 15.43 11.65 15.53L11.65 15.53L11.65 15.53Q11.28 15.26 11.14 14.95L11.14 14.95L11.14 14.95Q11.00 14.64 10.93 14.27L10.93 14.27L10.93 14.27Q10.95 13.93 11.04 13.43L11.04 13.43L11.04 13.43Q11.13 12.92 11.30 12.39L11.30 12.39L11.30 12.39Q11.62 11.37 12.13 10.36L12.13 10.36L12.13 10.36Q12.64 9.35 13.12 8.51L13.12 8.51L13.12 8.51Q13.51 8.60 13.82 8.78L13.82 8.78L13.82 8.78Q14.14 8.96 14.49 9.31L14.49 9.31L14.49 9.31Q14.35 9.74 14.06 10.23L14.06 10.23L14.06 10.23Q13.76 10.71 13.44 11.24L13.44 11.24L13.44 11.24Q13.12 11.77 12.85 12.33L12.85 12.33L12.85 12.33Q12.59 12.89 12.50 13.47L12.50 13.47L12.50 13.47Q12.89 12.91 13.43 12.18L13.43 12.18L13.43 12.18Q13.97 11.45 14.54 10.81L14.54 10.81L14.54 10.81Q15.11 10.16 15.67 9.72L15.67 9.72L15.67 9.72Q16.23 9.27 16.67 9.27L16.67 9.27L16.67 9.27Q16.84 9.27 17.04 9.32L17.04 9.32L17.04 9.32Q17.23 9.38 17.40 9.46L17.40 9.46L17.40 9.46Q17.57 9.55 17.68 9.63L17.68 9.63L17.68 9.63Q17.79 9.70 17.81 9.74L17.81 9.74L17.81 9.74Q17.74 10.02 17.48 10.51L17.48 10.51L17.48 10.51Q17.22 10.99 16.93 11.52L16.93 11.52L16.93 11.52Q16.63 12.05 16.38 12.55L16.38 12.55L16.38 12.55Q16.13 13.05 16.09 13.34L16.09 13.34L16.09 13.34Q16.77 12.40 17.37 11.64L17.37 11.64L17.37 11.64Q17.98 10.88 18.51 10.33L18.51 10.33L18.51 10.33Q19.04 9.79 19.50 9.49L19.50 9.49L19.50 9.49Q19.95 9.20 20.36 9.20L20.36 9.20L20.36 9.20Q20.64 9.20 20.88 9.34L20.88 9.34L20.88 9.34Q21.13 9.49 21.22 9.77L21.22 9.77L21.22 9.77Q21.10 10.19 20.81 10.78L20.81 10.78L20.81 10.78Q20.52 11.37 20.23 12.02L20.23 12.02L20.23 12.02Q19.94 12.67 19.70 13.30L19.70 13.30L19.70 13.30Q19.47 13.93 19.47 14.43L19.47 14.43L19.47 14.43Q19.47 14.73 19.56 14.82L19.56 14.82L19.56 14.82Q19.64 14.91 19.80 14.91L19.80 14.91L19.80 14.91Q19.96 14.91 20.11 14.85L20.11 14.85L20.11 14.85Q20.26 14.78 20.33 14.78L20.33 14.78L20.33 14.78Q20.41 14.84 20.43 14.92L20.43 14.92L20.43 14.92Q20.44 15.01 20.44 15.08L20.44 15.08L20.44 15.08Q20.16 15.30 19.87 15.45L19.87 15.45L19.87 15.45Q19.57 15.60 19.21 15.60L19.21 15.60L19.21 15.60Q18.87 15.60 18.66 15.48L18.66 15.48L18.66 15.48Q18.44 15.37 18.30 15.18L18.30 15.18L18.30 15.18Q18.16 14.98 18.10 14.73L18.10 14.73L18.10 14.73Q18.05 14.48 18.05 14.18L18.05 14.18L18.05 14.18Q18.05 13.71 18.17 13.24L18.17 13.24L18.17 13.24Q18.30 12.77 18.47 12.34L18.47 12.34L18.47 12.34Q18.65 11.91 18.84 11.54L18.84 11.54L18.84 11.54Q19.04 11.17 19.18 10.88ZM26.81 9.38L26.81 9.38L26.81 9.38Q26.75 10.25 26.50 10.87L26.50 10.87L26.50 10.87Q26.25 11.49 25.78 11.96L25.78 11.96L25.78 11.96Q25.31 12.43 24.64 12.81L24.64 12.81L24.64 12.81Q23.97 13.19 23.07 13.54L23.07 13.54L23.07 13.54Q23.07 13.62 23.07 13.71L23.07 13.71L23.07 13.71Q23.06 13.80 23.06 13.90L23.06 13.90L23.06 13.90Q23.06 14.08 23.09 14.28L23.09 14.28L23.09 14.28Q23.11 14.48 23.18 14.64L23.18 14.64L23.18 14.64Q23.25 14.81 23.38 14.92L23.38 14.92L23.38 14.92Q23.51 15.02 23.70 15.02L23.70 15.02L23.70 15.02Q24.08 15.02 24.44 14.85L24.44 14.85L24.44 14.85Q24.81 14.69 25.14 14.44L25.14 14.44L25.14 14.44Q25.47 14.20 25.75 13.91L25.75 13.91L25.75 13.91Q26.04 13.62 26.26 13.38L26.26 13.38L26.26 13.38Q26.40 13.51 26.50 13.62L26.50 13.62L26.50 13.62Q25.87 14.46 25.12 15.02L25.12 15.02L25.12 15.02Q24.37 15.57 23.70 15.72L23.70 15.72L23.70 15.72Q22.74 15.61 22.20 15.02L22.20 15.02L22.20 15.02Q21.66 14.42 21.66 13.58L21.66 13.58L21.66 13.58Q21.66 13.01 21.82 12.41L21.82 12.41L21.82 12.41Q21.98 11.82 22.27 11.26L22.27 11.26L22.27 11.26Q22.55 10.71 22.94 10.22L22.94 10.22L22.94 10.22Q23.32 9.73 23.77 9.37L23.77 9.37L23.77 9.37Q24.21 9.00 24.68 8.79L24.68 8.79L24.68 8.79Q25.14 8.58 25.61 8.58L25.61 8.58L25.61 8.58Q26.25 8.67 26.81 9.38ZM25.84 9.84L25.84 9.84L25.84 9.84Q25.47 9.90 25.06 10.15L25.06 10.15L25.06 10.15Q24.65 10.40 24.30 10.82L24.30 10.82L24.30 10.82Q23.94 11.24 23.65 11.80L23.65 11.80L23.65 11.80Q23.35 12.36 23.18 13.01L23.18 13.01L23.18 13.01Q24.30 12.45 25.05 11.63L25.05 11.63L25.05 11.63Q25.79 10.81 25.84 9.84ZM29.27 8.08L29.27 8.08L29.27 8.08Q29.19 8.01 29.12 7.85L29.12 7.85L29.12 7.85Q29.05 7.70 29.05 7.55L29.05 7.55L29.05 7.55Q29.22 7.06 29.37 6.42L29.37 6.42L29.37 6.42Q29.51 5.78 29.51 5.00L29.51 5.00L29.51 5.00Q29.51 4.65 29.48 4.28L29.48 4.28L29.48 4.28Q29.44 3.92 29.34 3.51L29.34 3.51L29.34 3.51Q30.02 3.56 30.57 3.80L30.57 3.80L30.57 3.80Q31.12 4.05 31.30 4.40L31.30 4.40L31.30 4.40Q31.07 5.67 30.58 6.61L30.58 6.61L30.58 6.61Q30.09 7.55 29.27 8.08ZM34.51 9.60L34.51 9.60L34.51 9.60Q34.50 9.87 34.42 10.16L34.42 10.16L34.42 10.16Q34.34 10.44 34.23 10.68L34.23 10.68L34.23 10.68Q34.12 10.91 33.99 11.06L33.99 11.06L33.99 11.06Q33.87 11.21 33.75 11.21L33.75 11.21L33.75 11.21Q33.60 11.20 33.57 11.00L33.57 11.00L33.57 11.00Q33.57 10.96 33.61 10.87L33.61 10.87L33.61 10.87Q33.64 10.78 33.68 10.67L33.68 10.67L33.68 10.67Q33.73 10.56 33.76 10.44L33.76 10.44L33.76 10.44Q33.80 10.33 33.80 10.25L33.80 10.25L33.80 10.25Q33.80 10.05 33.70 9.92L33.70 9.92L33.70 9.92Q33.61 9.79 33.46 9.79L33.46 9.79L33.46 9.79Q32.90 9.79 32.61 10.49L32.61 10.49L32.61 10.49Q32.31 11.19 32.31 12.54L32.31 12.54L32.31 12.54Q32.31 12.68 32.33 12.71L32.33 12.71L32.33 12.71Q32.62 12.70 32.85 12.69L32.85 12.69L32.85 12.69Q33.08 12.68 33.31 12.68L33.31 12.68L33.31 12.68Q33.32 12.71 33.32 12.80L33.32 12.80L33.32 12.80Q33.32 12.92 33.26 12.98L33.26 12.98L33.26 12.98Q32.94 13.05 32.75 13.10L32.75 13.10L32.75 13.10Q32.56 13.15 32.47 13.19L32.47 13.19L32.47 13.19Q32.37 13.23 32.35 13.28L32.35 13.28L32.35 13.28Q32.33 13.33 32.33 13.41L32.33 13.41L32.33 13.41Q32.33 13.52 32.33 13.64L32.33 13.64L32.33 13.64Q32.34 13.75 32.34 13.92L32.34 13.92L32.34 13.92Q32.34 15.09 31.70 15.81L31.70 15.81L31.70 15.81Q31.07 16.52 29.93 16.63L29.93 16.63L29.93 16.63Q29.74 16.62 29.53 16.52L29.53 16.52L29.53 16.52Q29.32 16.42 29.13 16.27L29.13 16.27L29.13 16.27Q28.94 16.11 28.80 15.93L28.80 15.93L28.80 15.93Q28.66 15.74 28.60 15.54L28.60 15.54L28.60 15.54Q28.60 15.01 28.83 14.53L28.83 14.53L28.83 14.53Q29.05 14.04 29.43 13.67L29.43 13.67L29.43 13.67Q29.82 13.30 30.34 13.07L30.34 13.07L30.34 13.07Q30.87 12.84 31.49 12.80L31.49 12.80L31.49 12.80Q31.49 12.45 31.42 12.11L31.42 12.11L31.42 12.11Q31.35 11.77 31.27 11.46L31.27 11.46L31.27 11.46Q31.19 11.14 31.12 10.84L31.12 10.84L31.12 10.84Q31.05 10.54 31.05 10.25L31.05 10.25L31.05 10.25Q31.05 9.87 31.21 9.50L31.21 9.50L31.21 9.50Q31.36 9.13 31.61 8.81L31.61 8.81L31.61 8.81Q31.86 8.50 32.20 8.27L32.20 8.27L32.20 8.27Q32.54 8.05 32.90 7.97L32.90 7.97L32.90 7.97Q33.05 8.01 33.31 8.21L33.31 8.21L33.31 8.21Q33.57 8.41 33.82 8.67L33.82 8.67L33.82 8.67Q34.08 8.92 34.27 9.18L34.27 9.18L34.27 9.18Q34.47 9.44 34.51 9.60ZM29.89 15.99L29.89 15.99L29.89 15.99Q30.23 15.85 30.53 15.58L30.53 15.58L30.53 15.58Q30.83 15.32 31.05 14.98L31.05 14.98L31.05 14.98Q31.28 14.64 31.41 14.27L31.41 14.27L31.41 14.27Q31.54 13.89 31.54 13.52L31.54 13.52L31.54 13.52Q31.26 13.57 30.93 13.78L30.93 13.78L30.93 13.78Q30.59 14 30.30 14.30L30.30 14.30L30.30 14.30Q30.00 14.60 29.81 14.92L29.81 14.92L29.81 14.92Q29.61 15.25 29.61 15.48L29.61 15.48L29.61 15.48Q29.61 15.79 29.89 15.99ZM47.56 7.46L47.56 7.46L47.56 7.46Q47.56 8.33 47.08 9.01L47.08 9.01L47.08 9.01Q46.61 9.69 45.78 10.14L45.78 10.14L45.78 10.14Q46.31 10.50 46.63 11.03L46.63 11.03L46.63 11.03Q46.94 11.55 46.94 12.18L46.94 12.18L46.94 12.18Q46.94 12.94 46.49 13.67L46.49 13.67L46.49 13.67Q46.03 14.41 45.28 14.97L45.28 14.97L45.28 14.97Q44.52 15.54 43.55 15.89L43.55 15.89L43.55 15.89Q42.59 16.24 41.58 16.24L41.58 16.24L41.58 16.24Q40.49 16.24 39.67 15.83L39.67 15.83L39.67 15.83Q38.85 15.41 38.39 14.66L38.39 14.66L38.39 14.66Q38.53 14.24 38.76 13.62L38.76 13.62L38.76 13.62Q38.99 12.99 39.27 12.30L39.27 12.30L39.27 12.30Q39.55 11.61 39.84 10.92L39.84 10.92L39.84 10.92Q40.12 10.23 40.38 9.69L40.38 9.69L40.38 9.69Q40.91 8.50 41.33 7.71L41.33 7.71L41.33 7.71Q41.75 6.93 42.10 6.47L42.10 6.47L42.10 6.47Q41.33 6.71 40.70 7.01L40.70 7.01L40.70 7.01Q40.07 7.31 39.77 7.59L39.77 7.59L39.77 7.59Q39.65 7.50 39.52 7.34L39.52 7.34L39.52 7.34Q39.38 7.17 39.26 6.96L39.26 6.96L39.26 6.96Q39.14 6.76 39.07 6.55L39.07 6.55L39.07 6.55Q38.99 6.34 38.98 6.17L38.98 6.17L38.98 6.17Q39.34 5.92 39.92 5.69L39.92 5.69L39.92 5.69Q40.50 5.46 41.19 5.29L41.19 5.29L41.19 5.29Q41.87 5.12 42.59 5.03L42.59 5.03L42.59 5.03Q43.32 4.93 43.97 4.93L43.97 4.93L43.97 4.93Q45.65 4.93 46.61 5.60L46.61 5.60L46.61 5.60Q47.56 6.27 47.56 7.46ZM42.22 10.81L42.22 10.81L42.22 10.81Q41.96 10.68 41.73 10.43L41.73 10.43L41.73 10.43Q41.41 11.14 41.13 11.83L41.13 11.83L41.13 11.83Q40.84 12.52 40.61 13.10L40.61 13.10L40.61 13.10Q40.39 13.69 40.25 14.13L40.25 14.13L40.25 14.13Q40.11 14.56 40.10 14.76L40.10 14.76L40.10 14.76Q40.29 14.87 40.56 14.92L40.56 14.92L40.56 14.92Q40.84 14.98 41.24 14.98L41.24 14.98L41.24 14.98Q42.20 14.98 43.06 14.71L43.06 14.71L43.06 14.71Q43.93 14.45 44.59 13.99L44.59 13.99L44.59 13.99Q45.25 13.54 45.64 12.95L45.64 12.95L45.64 12.95Q46.03 12.36 46.03 11.72L46.03 11.72L46.03 11.72Q46.03 10.79 45.23 10.39L45.23 10.39L45.23 10.39Q44.14 10.84 42.77 10.84L42.77 10.84L42.77 10.84Q42.57 10.84 42.47 10.84L42.47 10.84L42.47 10.84Q42.36 10.84 42.22 10.81ZM44.94 5.95L44.94 5.95L44.94 5.95Q44.65 5.95 44.32 5.98L44.32 5.98L44.32 5.98Q43.99 6.02 43.62 6.09L43.62 6.09L43.62 6.09Q43.68 6.15 43.71 6.21L43.71 6.21L43.71 6.21Q43.75 6.27 43.78 6.34L43.78 6.34L43.78 6.34Q43.65 6.51 43.47 6.83L43.47 6.83L43.47 6.83Q43.29 7.15 43.06 7.58L43.06 7.58L43.06 7.58Q42.84 8.01 42.59 8.53L42.59 8.53L42.59 8.53Q42.35 9.04 42.10 9.59L42.10 9.59L42.10 9.59Q42.34 9.53 42.68 9.50L42.68 9.50L42.68 9.50Q43.02 9.46 43.36 9.46L43.36 9.46L43.36 9.46Q43.54 9.46 43.71 9.48L43.71 9.48L43.71 9.48Q43.89 9.49 44.06 9.52L44.06 9.52L44.06 9.52Q44.73 9.41 45.27 9.19L45.27 9.19L45.27 9.19Q45.81 8.97 46.20 8.69L46.20 8.69L46.20 8.69Q46.59 8.40 46.80 8.05L46.80 8.05L46.80 8.05Q47.01 7.70 47.01 7.31L47.01 7.31L47.01 7.31Q47.01 6.64 46.48 6.29L46.48 6.29L46.48 6.29Q45.95 5.95 44.94 5.95ZM47.77 14.28L47.77 14.28L47.77 14.28Q47.77 13.66 48.06 12.55L48.06 12.55L48.06 12.55Q48.36 11.44 48.89 9.95L48.89 9.95L48.89 9.95Q49.76 7.59 50.52 6.01L50.52 6.01L50.52 6.01Q51.28 4.44 52.01 3.56L52.01 3.56L52.01 3.56Q52.18 3.58 52.42 3.70L52.42 3.70L52.42 3.70Q52.67 3.81 52.91 3.94L52.91 3.94L52.91 3.94Q53.14 4.07 53.33 4.21L53.33 4.21L53.33 4.21Q53.52 4.35 53.58 4.44L53.58 4.44L53.58 4.44Q52.49 5.73 51.66 7.21L51.66 7.21L51.66 7.21Q50.83 8.69 50.15 10.61L50.15 10.61L50.15 10.61Q49.56 12.26 49.25 13.59L49.25 13.59L49.25 13.59Q48.94 14.91 48.94 15.79L48.94 15.79L48.94 15.79Q48.94 16.03 48.94 16.09L48.94 16.09L48.94 16.09Q48.94 16.14 48.96 16.20L48.96 16.20L48.96 16.20Q48.76 16.17 48.62 16.10L48.62 16.10L48.62 16.10Q48.48 16.03 48.44 15.93L48.44 15.93L48.44 15.93Q48.41 15.86 48.29 15.73L48.29 15.73L48.29 15.73Q48.16 15.60 48.06 15.53L48.06 15.53L48.06 15.53Q47.94 15.44 47.85 15.09L47.85 15.09L47.85 15.09Q47.77 14.73 47.77 14.28ZM52.68 15.67L52.68 15.67L52.68 15.67Q51.88 15.58 51.41 14.97L51.41 14.97L51.41 14.97Q50.93 14.35 50.93 13.40L50.93 13.40L50.93 13.40Q50.93 12.84 51.10 12.24L51.10 12.24L51.10 12.24Q51.27 11.63 51.58 11.07L51.58 11.07L51.58 11.07Q51.88 10.50 52.30 10.00L52.30 10.00L52.30 10.00Q52.72 9.49 53.21 9.13L53.21 9.13L53.21 9.13Q53.98 8.55 54.66 8.55L54.66 8.55L54.66 8.55Q55.10 8.79 55.54 9.55L55.54 9.55L55.54 9.55Q55.61 9.55 55.66 9.54L55.66 9.54L55.66 9.54Q55.72 9.53 55.79 9.53L55.79 9.53L55.79 9.53Q56.53 9.53 56.53 10.85L56.53 10.85L56.53 10.85Q56.53 11.73 56.25 12.52L56.25 12.52L56.25 12.52Q55.96 13.31 55.45 13.96L55.45 13.96L55.45 13.96Q54.94 14.60 54.23 15.04L54.23 15.04L54.23 15.04Q53.52 15.48 52.68 15.67ZM53.40 11.26L53.40 11.26L53.40 11.26Q53.16 11.58 52.95 11.96L52.95 11.96L52.95 11.96Q52.74 12.33 52.58 12.72L52.58 12.72L52.58 12.72Q52.43 13.10 52.35 13.46L52.35 13.46L52.35 13.46Q52.26 13.82 52.26 14.10L52.26 14.10L52.26 14.10Q52.26 14.43 52.37 14.74L52.37 14.74L52.37 14.74Q52.49 15.05 52.63 15.09L52.63 15.09L52.63 15.09Q53.26 14.95 53.78 14.57L53.78 14.57L53.78 14.57Q54.31 14.18 54.69 13.61L54.69 13.61L54.69 13.61Q55.08 13.03 55.29 12.31L55.29 12.31L55.29 12.31Q55.51 11.58 55.51 10.75L55.51 10.75L55.51 10.75Q55.51 10.39 55.47 10.18L55.47 10.18L55.47 10.18Q55.43 9.97 55.33 9.81L55.33 9.81L55.33 9.81Q54.71 10.00 54.23 10.40L54.23 10.40L54.23 10.40Q53.75 10.81 53.40 11.26ZM54.38 19.35L54.38 19.35L54.38 19.35Q54.38 19.26 54.43 19.19L54.43 19.19L54.43 19.19Q54.49 19.12 54.56 19.05L54.56 19.05L54.56 19.05Q54.73 19.21 54.85 19.29L54.85 19.29L54.85 19.29Q54.96 19.38 55.07 19.43L55.07 19.43L55.07 19.43Q55.17 19.49 55.29 19.50L55.29 19.50L55.29 19.50Q55.40 19.52 55.55 19.52L55.55 19.52L55.55 19.52Q56.28 19.52 56.94 19.13L56.94 19.13L56.94 19.13Q57.60 18.75 58.18 18.02L58.18 18.02L58.18 18.02Q58.76 17.29 59.23 16.24L59.23 16.24L59.23 16.24Q59.71 15.19 60.07 13.86L60.07 13.86L60.07 13.86Q59.91 14.03 59.66 14.23L59.66 14.23L59.66 14.23Q59.42 14.43 59.15 14.62L59.15 14.62L59.15 14.62Q58.88 14.80 58.63 14.95L58.63 14.95L58.63 14.95Q58.37 15.11 58.18 15.18L58.18 15.18L58.18 15.18Q57.95 15.13 57.74 14.97L57.74 14.97L57.74 14.97Q57.54 14.81 57.39 14.57L57.39 14.57L57.39 14.57Q57.23 14.34 57.15 14.04L57.15 14.04L57.15 14.04Q57.06 13.73 57.06 13.40L57.06 13.40L57.06 13.40Q57.06 12.85 57.27 12.28L57.27 12.28L57.27 12.28Q57.47 11.70 57.81 11.15L57.81 11.15L57.81 11.15Q58.14 10.60 58.60 10.11L58.60 10.11L58.60 10.11Q59.05 9.62 59.56 9.25L59.56 9.25L59.56 9.25Q60.07 8.89 60.60 8.67L60.60 8.67L60.60 8.67Q61.12 8.46 61.63 8.46L61.63 8.46L61.63 8.46Q62.12 8.46 62.36 8.66L62.36 8.66L62.36 8.66Q62.61 8.86 62.72 9.35L62.72 9.35L62.72 9.35Q62.57 9.27 62.33 9.27L62.33 9.27L62.33 9.27Q61.99 9.27 61.55 9.53L61.55 9.53L61.55 9.53Q61.11 9.80 60.66 10.23L60.66 10.23L60.66 10.23Q60.20 10.65 59.75 11.21L59.75 11.21L59.75 11.21Q59.30 11.76 58.96 12.33L58.96 12.33L58.96 12.33Q58.62 12.91 58.40 13.45L58.40 13.45L58.40 13.45Q58.18 14 58.18 14.43L58.18 14.43L58.18 14.43Q58.18 14.53 58.20 14.55L58.20 14.55L58.20 14.55Q58.21 14.57 58.24 14.57L58.24 14.57L58.24 14.57Q58.37 14.57 58.58 14.43L58.58 14.43L58.58 14.43Q58.80 14.29 59.07 14.08L59.07 14.08L59.07 14.08Q59.35 13.86 59.64 13.57L59.64 13.57L59.64 13.57Q59.93 13.29 60.20 12.99L60.20 12.99L60.20 12.99Q60.80 12.32 61.30 11.49L61.30 11.49L61.30 11.49Q61.80 10.65 62.09 9.87L62.09 9.87L62.09 9.87Q62.47 9.90 62.76 10.00L62.76 10.00L62.76 10.00Q63.06 10.09 63.17 10.21L63.17 10.21L63.17 10.21Q62.69 11.30 62.41 12.04L62.41 12.04L62.41 12.04Q62.12 12.78 61.91 13.36L61.91 13.36L61.91 13.36Q61.53 14.36 61.20 15.20L61.20 15.20L61.20 15.20Q60.87 16.03 60.53 16.74L60.53 16.74L60.53 16.74Q60.19 17.44 59.79 18.05L59.79 18.05L59.79 18.05Q59.39 18.66 58.88 19.22L58.88 19.22L58.88 19.22Q58.65 19.49 58.35 19.69L58.35 19.69L58.35 19.69Q58.04 19.89 57.73 20.03L57.73 20.03L57.73 20.03Q57.41 20.17 57.11 20.24L57.11 20.24L57.11 20.24Q56.81 20.31 56.56 20.31L56.56 20.31L56.56 20.31Q56.22 20.31 55.87 20.24L55.87 20.24L55.87 20.24Q55.52 20.16 55.22 20.03L55.22 20.03L55.22 20.03Q54.92 19.89 54.70 19.72L54.70 19.72L54.70 19.72Q54.47 19.54 54.38 19.35Z"></path></g><!----><!----></svg>