<svg width="62" height="64" xmlns="http://www.w3.org/2000/svg" class="iconLeft">
 <!---->
 <defs>
  <!---->
  <linearGradient y2="0%" x2="100%" y1="0%" x1="0%" id="29bbe1c1-96fc-428e-af2a-f2ff812f1d84" gradientTransform="rotate(25)">
   <stop stop-color="#085B20" offset="0%"/>
   <stop stop-color="#41E296" offset="100%"/>
  </linearGradient>
 </defs>
 <defs>
  <!---->
 </defs>

 <!---->
 <g>
  <title>background</title>
  <rect fill="none" id="canvas_background" height="66" width="64" y="-1" x="-1"/>
 </g>
 <g>
  <title>Layer 1</title>
  <rect id="svg_1" class="logo-background-square" height="202.000004" width="179" y="-3" x="410" fill="transparent"/>
  <g transform="matrix(0.663689, 0, 0, 0.663689, 36.6816, 116.816)" fill="url(#29bbe1c1-96fc-428e-af2a-f2ff812f1d84)" id="3425088c-090f-4e1b-a7a4-ed21272b11bc">
   <path id="svg_3" d="m-8.762424,-174.300735c-24.813,0 -45,20.186996 -45,45s20.187,45 45,45s45,-20.186996 45,-45s-20.186996,-45 -45,-45zm0,85c-22.056,0 -40,-17.944 -40,-40s17.944,-40 40,-40s40,17.944 40,40s-17.944,40 -40,40z"/>
   <path id="svg_4" d="m25.831577,-127.640732a1.267,1.267 0 0 0 -0.938004,-0.410004l-26.752998,0c-0.82,0 -1.115002,0.634995 -1.187,0.830002c-0.07,0.195 -0.252998,0.871994 0.375,1.397995l20.494999,17.197006c0.293999,0.247993 0.609001,0.298996 0.821999,0.298996c0.406006,0 0.773003,-0.184998 1.005005,-0.506996a34.990002,34.990002 0 0 0 6.508995,-17.879997a1.21,1.21 0 0 0 -0.327995,-0.927002zm-7.187004,-22.634003c-0.211998,0 -0.526001,0.052002 -0.82,0.298004l-20.494999,17.196991c-0.627998,0.527008 -0.445,1.203995 -0.375,1.397995c0.070999,0.195007 0.366001,0.830017 1.187,0.830017l26.753998,0c0.359001,0 0.692001,-0.146011 0.938004,-0.410004c0.237,-0.255005 0.353996,-0.584 0.328003,-0.925003a34.993999,34.993999 0 0 0 -6.507004,-17.880005a1.23,1.23 0 0 0 -1.010002,-0.507996zm-19.092999,-13.005997c-0.599998,0 -1.132,0.453003 -1.237,1.054001l-4.645,26.345993c-0.085999,0.484009 0.093002,0.820007 0.257,1.016006c0.438999,0.521988 1.240002,0.636002 1.796001,0.169998l20.495003,-17.197006c0.274994,-0.231003 0.437996,-0.556992 0.454994,-0.917999a1.211,1.211 0 0 0 -0.341995,-0.917999a35.006001,35.006001 0 0 0 -16.479004,-9.516006a1.264,1.264 0 0 0 -0.299999,-0.036987zm-24.057999,4.207993s0.000999,0 0,0l13.377998,23.169998c0.317001,0.550003 0.811001,0.632004 1.076,0.632004c0.535,0 1.132,-0.322998 1.259003,-1.043991l4.646,-26.347015a1.266,1.266 0 0 0 -0.240002,-0.995987a1.214,1.214 0 0 0 -0.853001,-0.483002a35.085999,35.085999 0 0 0 -3.521,-0.177002a35.210999,35.210999 0 0 0 -15.217999,3.479004a1.22,1.22 0 0 0 -0.639999,0.75c-0.106003,0.343994 -0.065002,0.705002 0.112999,1.015991zm-16.186001,15.396011a1.22,1.22 0 0 0 -0.007,0.984985c0.140999,0.332001 0.403,0.583008 0.741001,0.706009l25.139999,9.149994a1.252,1.252 0 0 0 1.533001,-0.567993c0.132999,-0.229996 0.308998,-0.699005 -0.009003,-1.249008l-13.376999,-23.168991a1.28,1.28 0 0 0 -1.105999,-0.639999c-0.244001,0 -0.479,0.071991 -0.682001,0.209a35.007999,35.007999 0 0 0 -12.233,14.576004zm-1.769001,23.886993c0.188004,0.670998 0.973,1.071999 1.648003,0.823997l25.139999,-9.150002c0.771,-0.279999 0.829998,-0.978989 0.829998,-1.185989c0,-0.207001 -0.059998,-0.904999 -0.829998,-1.185013l-25.140999,-9.149994a1.263,1.263 0 0 0 -0.437004,-0.078003c-0.562996,0 -1.060997,0.369003 -1.209999,0.897003a35.004002,35.004002 0 0 0 0,19.028zm29.167,-4.158997c0.318001,-0.550003 0.143002,-1.019005 0.010002,-1.249008c-0.232002,-0.401993 -0.646,-0.651993 -1.080002,-0.651993c-0.147999,0 -0.300999,0.028 -0.452999,0.082993l-25.140999,9.151001a1.262,1.262 0 0 0 -0.742001,0.707001c-0.136002,0.320007 -0.132999,0.667999 0.007999,0.979004a34.991001,34.991001 0 0 0 12.229,14.576996c0.58,0.395004 1.437,0.18 1.790001,-0.421997l0.001999,-0.004997l13.376999,-23.168999zm9.146,28.008995l-4.646,-26.347c-0.126999,-0.721001 -0.723999,-1.043999 -1.257999,-1.043999c-0.266998,0 -0.759998,0.083 -1.077999,0.632996l-13.375999,23.168007c-0.18,0.311996 -0.220001,0.672997 -0.112999,1.018997c0.102997,0.333 0.327999,0.598 0.635998,0.746002a35.312,35.312 0 0 0 18.737999,3.305c0.342003,-0.035004 0.646,-0.207001 0.856003,-0.485001c0.218998,-0.288002 0.302998,-0.642006 0.240997,-0.995003zm-0.129997,-27.967003a1.213,1.213 0 0 0 -0.795002,-0.304001c-0.377998,0 -0.751999,0.177002 -1.000999,0.473999a1.203,1.203 0 0 0 -0.257,1.016006l4.646,26.348c0.123001,0.700996 0.842999,1.192001 1.533001,1.016998a34.995998,34.995998 0 0 0 16.478996,-9.513c0.239006,-0.246002 0.361,-0.573997 0.344002,-0.922997a1.269,1.269 0 0 0 -0.455002,-0.917l-20.493996,-17.198006z"/>
  </g>
 </g>
</svg>